<svg xmlns="http://www.w3.org/2000/svg" viewBox="0 0 220.81 41.24"><defs><style>.cls-1,.cls-2{fill:#fff;}.cls-2{stroke:#fff;stroke-miterlimit:10;stroke-width:0.29px;}.cls-3{opacity:0.67;}.cls-4{fill:#afbacd;}</style></defs><title>compass_logo_footer</title><g id="Layer_2" data-name="Layer 2"><g id="Layer_7" data-name="Layer 7"><path class="cls-1" d="M60.31,20.49l1.12,1.12a7.58,7.58,0,0,1-5.73,2.51,7.16,7.16,0,0,1-7.27-7.41h0a7.25,7.25,0,0,1,7.27-7.41,7.64,7.64,0,0,1,5.59,2.24L60.17,12.8a6.23,6.23,0,0,0-4.61-2.1A5.67,5.67,0,0,0,50,16.58h0a5.71,5.71,0,0,0,5.59,6A6.26,6.26,0,0,0,60.31,20.49Zm18-3.91h0a7.34,7.34,0,1,1-14.67.14h0a7.28,7.28,0,0,1,7.41-7.41A7,7,0,0,1,78.33,16.58Zm-1.68,0a5.82,5.82,0,0,0-5.73-6,5.58,5.58,0,0,0-5.59,5.87h0a5.82,5.82,0,0,0,5.73,6c3.35.14,5.59-2.51,5.59-5.87Zm12.71.7L84.06,9.45H82.38V23.84h1.68V12.25l5.31,7.68h.14l5.31-7.68V24h1.68V9.45H94.82Zm22.5-3.21h0c0,3.21-2.65,4.75-5.73,4.75h-3.49v5H101V9.45h5.45C109.63,9.45,111.86,11.13,111.86,14.06Zm-1.68,0c0-2.1-1.54-3.07-3.91-3.07h-3.63v6.29h3.49c2.51,0,4.05-1.26,4.05-3.21ZM120.8,9.31l6.57,14.53h-1.82l-1.68-3.77h-7.68l-1.68,3.77h-1.68l6.57-14.53Zm2.51,9.22-3.21-7.41-3.35,7.41ZM136,15.88c-3.21-.7-3.91-1.4-3.91-2.79h0c0-1.26,1.26-2.38,3.07-2.38a6.25,6.25,0,0,1,4.19,1.54l1-1.26a7.63,7.63,0,0,0-5-1.82c-2.79,0-4.75,1.68-4.75,3.91h0c0,2.38,1.54,3.49,4.89,4.19,3.07.7,3.77,1.4,3.77,2.79h0c0,1.4-1.26,2.51-3.21,2.51a6.55,6.55,0,0,1-4.89-2.1l-1,1.26A7.27,7.27,0,0,0,135.75,24c2.79,0,4.89-1.54,4.89-4.05h0C140.64,17.69,139.25,16.58,136,15.88Zm13.69,0c-3.21-.7-3.91-1.4-3.91-2.79h0c0-1.26,1.26-2.38,3.07-2.38a6.25,6.25,0,0,1,4.19,1.54l.84-1.26a7.63,7.63,0,0,0-5-1.82c-2.79,0-4.75,1.68-4.75,3.91h0c0,2.38,1.54,3.49,4.89,4.19,3.07.7,3.77,1.4,3.77,2.79h0c0,1.4-1.26,2.51-3.21,2.51a6.55,6.55,0,0,1-4.89-2.1l-1,1.26a8.48,8.48,0,0,0,5.87,2.38c2.79,0,4.89-1.54,4.89-4.05h0C154.48,17.69,152.94,16.58,149.73,15.88Z"/><path class="cls-2" d="M20.62,41.09A20.47,20.47,0,1,1,41.09,20.62,20.5,20.5,0,0,1,20.62,41.09Zm0-40.25A19.78,19.78,0,1,0,40.4,20.62,19.8,19.8,0,0,0,20.62.84Z"/><path class="cls-1" d="M23.94,33.56,19.7,23.12,8.13,21.35,28.2,11.62ZM10.44,21l9.75,1.49,3.51,8.64,3.55-18.29Z"/><path class="cls-1" d="M23.79,31.14a1.46,1.46,0,1,0,.89.3A1.45,1.45,0,0,0,23.79,31.14Z"/><path class="cls-1" d="M28.06,10.37a1.46,1.46,0,1,0,.89.3A1.45,1.45,0,0,0,28.06,10.37Z"/><path class="cls-1" d="M8.91,19.7a1.46,1.46,0,1,0,.89.3A1.45,1.45,0,0,0,8.91,19.7Z"/><g class="cls-3"><path class="cls-4" d="M48.69,32.77a2.89,2.89,0,0,1,.9-.6,2.79,2.79,0,0,1,1.08-.2,1.92,1.92,0,0,1,.75.14,1.56,1.56,0,0,1,.56.39,1.65,1.65,0,0,1,.34.6,2.52,2.52,0,0,1,.11.78v3.24H52a.39.39,0,0,1-.2,0,.29.29,0,0,1-.11-.17l-.1-.48a5,5,0,0,1-.39.33,2.25,2.25,0,0,1-.4.24,2.16,2.16,0,0,1-.45.15,2.44,2.44,0,0,1-.53.05,1.82,1.82,0,0,1-.56-.08,1.28,1.28,0,0,1-.45-.25,1.16,1.16,0,0,1-.31-.42,1.46,1.46,0,0,1-.11-.6,1.11,1.11,0,0,1,.17-.58,1.45,1.45,0,0,1,.53-.49,3.5,3.5,0,0,1,1-.35,7.37,7.37,0,0,1,1.46-.16v-.4A1.35,1.35,0,0,0,51.3,33a.92.92,0,0,0-.74-.3,1.6,1.6,0,0,0-.55.08,2.06,2.06,0,0,0-.38.19l-.28.19a.41.41,0,0,1-.23.08.26.26,0,0,1-.15,0,.44.44,0,0,1-.11-.12Zm2.88,2.07a7.39,7.39,0,0,0-1,.1,3,3,0,0,0-.71.2,1,1,0,0,0-.39.29.63.63,0,0,0-.12.38.84.84,0,0,0,.06.35.64.64,0,0,0,.18.24.71.71,0,0,0,.27.14,1.22,1.22,0,0,0,.33,0,1.81,1.81,0,0,0,.43,0,1.62,1.62,0,0,0,.37-.14,2.09,2.09,0,0,0,.33-.21,2.86,2.86,0,0,0,.31-.29Z"/><path class="cls-4" d="M61,29.75v7.37h-.53a.23.23,0,0,1-.24-.19l-.08-.61a2.77,2.77,0,0,1-.74.63,1.88,1.88,0,0,1-1,.24A1.83,1.83,0,0,1,57.7,37a1.63,1.63,0,0,1-.6-.49,2.34,2.34,0,0,1-.39-.81,4.18,4.18,0,0,1-.13-1.12,3.49,3.49,0,0,1,.15-1,2.58,2.58,0,0,1,.43-.84,2,2,0,0,1,.69-.56,2,2,0,0,1,.92-.2,1.85,1.85,0,0,1,.8.16,1.93,1.93,0,0,1,.59.44V29.75Zm-.89,3.51a1.44,1.44,0,0,0-.54-.47,1.54,1.54,0,0,0-.65-.13,1.28,1.28,0,0,0-1.08.5,2.36,2.36,0,0,0-.38,1.44,3.66,3.66,0,0,0,.08.85,1.64,1.64,0,0,0,.25.58,1,1,0,0,0,.4.33,1.35,1.35,0,0,0,.54.1,1.44,1.44,0,0,0,.77-.2,2.2,2.2,0,0,0,.6-.56Z"/><path class="cls-4" d="M63.85,30.46a.57.57,0,0,1-.05.24.71.71,0,0,1-.14.2.65.65,0,0,1-.21.14.62.62,0,0,1-.25.05A.59.59,0,0,1,63,31a.63.63,0,0,1-.2-.14.68.68,0,0,1-.13-.2.58.58,0,0,1-.05-.24.62.62,0,0,1,.05-.25.66.66,0,0,1,.13-.21.63.63,0,0,1,.2-.14.59.59,0,0,1,.24,0,.63.63,0,0,1,.25,0,.65.65,0,0,1,.21.14.68.68,0,0,1,.14.21A.6.6,0,0,1,63.85,30.46Zm-.19,1.59v5.06h-.89V32.05Z"/><path class="cls-4" d="M69.65,32.25v.33q0,.17-.21.21l-.58.08a1.65,1.65,0,0,1,0,1.4,1.54,1.54,0,0,1-.39.52,1.74,1.74,0,0,1-.6.33,2.42,2.42,0,0,1-.76.12,2.54,2.54,0,0,1-.67-.09.9.9,0,0,0-.24.21.37.37,0,0,0-.08.23.3.3,0,0,0,.15.27,1.06,1.06,0,0,0,.39.13,4.11,4.11,0,0,0,.55,0l.63,0a6,6,0,0,1,.63.08,1.91,1.91,0,0,1,.55.18,1,1,0,0,1,.39.35,1,1,0,0,1,.15.57,1.32,1.32,0,0,1-.16.63,1.71,1.71,0,0,1-.47.54,2.42,2.42,0,0,1-.75.38,3.25,3.25,0,0,1-1,.14,3.81,3.81,0,0,1-1-.11,2.27,2.27,0,0,1-.69-.29,1.29,1.29,0,0,1-.41-.43A1,1,0,0,1,65,37.6a.91.91,0,0,1,.23-.63,1.63,1.63,0,0,1,.65-.42.92.92,0,0,1-.36-.27.71.71,0,0,1-.13-.45.7.7,0,0,1,0-.23.94.94,0,0,1,.12-.23,1.28,1.28,0,0,1,.2-.22A1.32,1.32,0,0,1,66,35a1.56,1.56,0,0,1-.59-.56,1.53,1.53,0,0,1-.21-.81,1.56,1.56,0,0,1,.14-.67,1.49,1.49,0,0,1,.4-.52,1.82,1.82,0,0,1,.61-.33,2.66,2.66,0,0,1,1.39,0,2,2,0,0,1,.52.21Zm-.9,5.14a.43.43,0,0,0-.1-.3.71.71,0,0,0-.28-.18,1.82,1.82,0,0,0-.41-.09l-.5,0-.53,0-.52,0a1.38,1.38,0,0,0-.46.33.67.67,0,0,0-.18.46.61.61,0,0,0,.09.32.75.75,0,0,0,.27.25,1.56,1.56,0,0,0,.45.17,3.28,3.28,0,0,0,1.29,0,1.62,1.62,0,0,0,.48-.19.91.91,0,0,0,.3-.28A.67.67,0,0,0,68.74,37.39Zm-1.6-2.75a1.38,1.38,0,0,0,.47-.07,1,1,0,0,0,.35-.21.87.87,0,0,0,.21-.32,1.17,1.17,0,0,0,.07-.41,1,1,0,0,0-.28-.74,1.36,1.36,0,0,0-1.64,0,1,1,0,0,0-.28.74,1.14,1.14,0,0,0,.07.41.89.89,0,0,0,.21.32,1,1,0,0,0,.35.21A1.38,1.38,0,0,0,67.14,34.64Z"/><path class="cls-4" d="M72,30.46a.57.57,0,0,1-.05.24.71.71,0,0,1-.14.2.65.65,0,0,1-.21.14.62.62,0,0,1-.25.05.59.59,0,0,1-.24-.05.63.63,0,0,1-.2-.14.68.68,0,0,1-.13-.2.58.58,0,0,1-.05-.24.62.62,0,0,1,.05-.25.66.66,0,0,1,.13-.21.63.63,0,0,1,.2-.14.59.59,0,0,1,.24,0,.63.63,0,0,1,.25,0,.65.65,0,0,1,.21.14.68.68,0,0,1,.14.21A.6.6,0,0,1,72,30.46Zm-.19,1.59v5.06H70.9V32.05Z"/><path class="cls-4" d="M75.08,37.2a1.22,1.22,0,0,1-.92-.33,1.34,1.34,0,0,1-.32-1V32.8h-.61a.2.2,0,0,1-.13,0A.18.18,0,0,1,73,32.6v-.35l.83-.1.21-1.56a.22.22,0,0,1,.07-.12.2.2,0,0,1,.14,0h.45v1.75h1.47v.65H74.72v3a.64.64,0,0,0,.16.47.54.54,0,0,0,.4.16.71.71,0,0,0,.24,0l.18-.08.13-.08a.17.17,0,0,1,.09,0,.15.15,0,0,1,.13.08l.26.43a1.66,1.66,0,0,1-.55.34A1.89,1.89,0,0,1,75.08,37.2Z"/><path class="cls-4" d="M77.44,32.77a2.89,2.89,0,0,1,.9-.6,2.79,2.79,0,0,1,1.08-.2,1.92,1.92,0,0,1,.75.14,1.56,1.56,0,0,1,.56.39,1.65,1.65,0,0,1,.34.6,2.52,2.52,0,0,1,.11.78v3.24h-.4a.39.39,0,0,1-.2,0,.29.29,0,0,1-.11-.17l-.1-.48a5,5,0,0,1-.39.33,2.25,2.25,0,0,1-.4.24,2.16,2.16,0,0,1-.45.15,2.44,2.44,0,0,1-.53.05,1.82,1.82,0,0,1-.56-.08,1.28,1.28,0,0,1-.45-.25,1.16,1.16,0,0,1-.31-.42,1.46,1.46,0,0,1-.11-.6,1.11,1.11,0,0,1,.17-.58,1.45,1.45,0,0,1,.53-.49,3.5,3.5,0,0,1,1-.35,7.37,7.37,0,0,1,1.46-.16v-.4a1.35,1.35,0,0,0-.26-.89.92.92,0,0,0-.74-.3,1.6,1.6,0,0,0-.55.08,2.06,2.06,0,0,0-.38.19l-.28.19a.41.41,0,0,1-.23.08.26.26,0,0,1-.15,0,.44.44,0,0,1-.11-.12Zm2.88,2.07a7.39,7.39,0,0,0-1,.1,3,3,0,0,0-.71.2,1,1,0,0,0-.39.29.63.63,0,0,0-.12.38.84.84,0,0,0,.06.35.64.64,0,0,0,.18.24.71.71,0,0,0,.27.14,1.22,1.22,0,0,0,.33,0,1.81,1.81,0,0,0,.43,0,1.62,1.62,0,0,0,.37-.14,2.09,2.09,0,0,0,.33-.21,2.86,2.86,0,0,0,.31-.29Z"/><path class="cls-4" d="M83.76,29.75v7.37h-.89V29.75Z"/><path class="cls-4" d="M89.11,32.84a2.62,2.62,0,0,1,.74-.64,1.9,1.9,0,0,1,1-.24,1.84,1.84,0,0,1,.79.17,1.62,1.62,0,0,1,.6.49,2.37,2.37,0,0,1,.39.81,4.18,4.18,0,0,1,.13,1.12,3.49,3.49,0,0,1-.15,1,2.51,2.51,0,0,1-.43.83,2,2,0,0,1-1.61.76,1.85,1.85,0,0,1-.8-.16,1.87,1.87,0,0,1-.59-.44v2.24h-.9V32.05h.54a.22.22,0,0,1,.23.19Zm0,3.06a1.44,1.44,0,0,0,.53.47,1.53,1.53,0,0,0,.65.13,1.28,1.28,0,0,0,1.09-.5,2.36,2.36,0,0,0,.38-1.44,3.61,3.61,0,0,0-.09-.85,1.66,1.66,0,0,0-.25-.58,1,1,0,0,0-.41-.33,1.35,1.35,0,0,0-.54-.1,1.43,1.43,0,0,0-.76.2,2.2,2.2,0,0,0-.6.56Z"/><path class="cls-4" d="M95,33.07a2.28,2.28,0,0,1,.59-.81,1.29,1.29,0,0,1,.85-.29,1.35,1.35,0,0,1,.31,0,.82.82,0,0,1,.26.11l-.06.66a.14.14,0,0,1-.15.13l-.21,0a1.41,1.41,0,0,0-.31,0,1.21,1.21,0,0,0-.43.07,1,1,0,0,0-.33.21,1.46,1.46,0,0,0-.27.34,2.93,2.93,0,0,0-.21.46v3.2h-.9V32.05h.51a.28.28,0,0,1,.2.06.34.34,0,0,1,.08.19Z"/><path class="cls-4" d="M100.24,32a2.58,2.58,0,0,1,1,.19,2.15,2.15,0,0,1,.76.52,2.31,2.31,0,0,1,.48.82,3.56,3.56,0,0,1,0,2.16,2.31,2.31,0,0,1-.48.82,2.12,2.12,0,0,1-.76.52,2.61,2.61,0,0,1-1,.18,2.65,2.65,0,0,1-1-.18,2.12,2.12,0,0,1-.76-.52,2.31,2.31,0,0,1-.48-.82,3.56,3.56,0,0,1,0-2.16,2.31,2.31,0,0,1,.48-.82,2.14,2.14,0,0,1,.76-.52A2.61,2.61,0,0,1,100.24,32Zm0,4.52a1.3,1.3,0,0,0,1.12-.5,2.86,2.86,0,0,0,0-2.81,1.3,1.3,0,0,0-1.12-.5,1.56,1.56,0,0,0-.66.13,1.23,1.23,0,0,0-.47.38,1.66,1.66,0,0,0-.28.6,3.21,3.21,0,0,0-.09.81,2.31,2.31,0,0,0,.37,1.4A1.32,1.32,0,0,0,100.24,36.49Z"/><path class="cls-4" d="M108.32,29.75v7.37h-.53a.23.23,0,0,1-.24-.19l-.08-.61a2.77,2.77,0,0,1-.74.63,1.88,1.88,0,0,1-1,.24A1.83,1.83,0,0,1,105,37a1.63,1.63,0,0,1-.6-.49,2.34,2.34,0,0,1-.39-.81,4.18,4.18,0,0,1-.13-1.12,3.49,3.49,0,0,1,.15-1,2.58,2.58,0,0,1,.43-.84,2,2,0,0,1,.69-.56A2,2,0,0,1,106,32a1.85,1.85,0,0,1,.8.16,1.93,1.93,0,0,1,.59.44V29.75Zm-.89,3.51a1.44,1.44,0,0,0-.54-.47,1.54,1.54,0,0,0-.65-.13,1.28,1.28,0,0,0-1.08.5,2.36,2.36,0,0,0-.38,1.44,3.66,3.66,0,0,0,.08.85,1.64,1.64,0,0,0,.25.58,1,1,0,0,0,.4.33,1.35,1.35,0,0,0,.54.1,1.44,1.44,0,0,0,.77-.2,2.2,2.2,0,0,0,.6-.56Z"/><path class="cls-4" d="M114.2,32.05v5.06h-.53a.23.23,0,0,1-.24-.19l-.07-.54a2.78,2.78,0,0,1-.74.59,1.94,1.94,0,0,1-.94.22,1.82,1.82,0,0,1-.73-.14,1.45,1.45,0,0,1-.53-.39,1.64,1.64,0,0,1-.32-.6,2.7,2.7,0,0,1-.11-.79V32.05h.89v3.23a1.35,1.35,0,0,0,.26.89,1,1,0,0,0,.8.31,1.51,1.51,0,0,0,.74-.19,2.35,2.35,0,0,0,.63-.52V32.05Z"/><path class="cls-4" d="M119.46,33l-.08.08a.18.18,0,0,1-.11,0,.3.3,0,0,1-.17-.06l-.22-.14a1.83,1.83,0,0,0-.32-.14,1.75,1.75,0,0,0-1.13.07,1.27,1.27,0,0,0-.48.38,1.74,1.74,0,0,0-.29.6,3,3,0,0,0-.1.79,2.91,2.91,0,0,0,.1.82,1.74,1.74,0,0,0,.3.6,1.28,1.28,0,0,0,.46.37,1.43,1.43,0,0,0,.61.13,1.46,1.46,0,0,0,.88-.25l.23-.17a.29.29,0,0,1,.18-.08.2.2,0,0,1,.17.08l.25.33a1.77,1.77,0,0,1-.37.35,2.3,2.3,0,0,1-.45.24,2.45,2.45,0,0,1-.51.14,3.19,3.19,0,0,1-.54,0A2.21,2.21,0,0,1,117,37a2,2,0,0,1-.71-.51,2.37,2.37,0,0,1-.47-.82,3.61,3.61,0,0,1,0-2.15,2.37,2.37,0,0,1,.46-.83,2.09,2.09,0,0,1,.75-.54,2.5,2.5,0,0,1,1-.19,2.41,2.41,0,0,1,.94.17,2.26,2.26,0,0,1,.72.49Z"/><path class="cls-4" d="M122.75,37.2a1.22,1.22,0,0,1-.92-.33,1.34,1.34,0,0,1-.32-1V32.8h-.61a.2.2,0,0,1-.13,0,.18.18,0,0,1-.06-.15v-.35l.83-.1.21-1.56a.22.22,0,0,1,.07-.12.2.2,0,0,1,.14,0h.45v1.75h1.47v.65H122.4v3a.64.64,0,0,0,.16.47.54.54,0,0,0,.4.16.71.71,0,0,0,.24,0l.18-.08.13-.08a.17.17,0,0,1,.09,0,.15.15,0,0,1,.13.08l.26.43a1.66,1.66,0,0,1-.55.34A1.89,1.89,0,0,1,122.75,37.2Z"/><path class="cls-4" d="M128.74,32.78a2.61,2.61,0,0,1,.72-.59,1.9,1.9,0,0,1,.93-.22,1.85,1.85,0,0,1,.8.17,1.67,1.67,0,0,1,.61.49,2.3,2.3,0,0,1,.38.78,3.74,3.74,0,0,1,.13,1,3.92,3.92,0,0,1-.15,1.12,2.54,2.54,0,0,1-.43.86A2,2,0,0,1,131,37a2.05,2.05,0,0,1-.91.2,1.74,1.74,0,0,1-.84-.19,1.84,1.84,0,0,1-.6-.53l0,.46a.21.21,0,0,1-.23.19h-.57V29.75h.9Zm0,3.11a1.43,1.43,0,0,0,.54.47,1.52,1.52,0,0,0,.64.13A1.29,1.29,0,0,0,131,36a2.48,2.48,0,0,0,.38-1.5,2.24,2.24,0,0,0-.34-1.37,1.14,1.14,0,0,0-1-.44,1.41,1.41,0,0,0-.76.2,2.23,2.23,0,0,0-.6.56Z"/><path class="cls-4" d="M138,32.05l-2.83,6.56a.46.46,0,0,1-.11.16.31.31,0,0,1-.21.06h-.66l.92-2L133,32.05h.77a.27.27,0,0,1,.18.06.3.3,0,0,1,.09.13l1.35,3.19a3.58,3.58,0,0,1,.14.44q.07-.24.15-.44L137,32.24a.29.29,0,0,1,.1-.13.27.27,0,0,1,.16-.05Z"/><path class="cls-4" d="M148.83,32.05l-1.64,5.06h-.7q-.13,0-.18-.17l-1.12-3.44a1.89,1.89,0,0,1-.06-.23l0-.23-.05.23a2.15,2.15,0,0,1-.06.24l-1.14,3.43a.2.2,0,0,1-.2.17h-.67l-1.64-5.06h.7a.28.28,0,0,1,.18.06.27.27,0,0,1,.1.13l1,3.26q.08.36.14.68l.09-.33.1-.35,1.07-3.28a.26.26,0,0,1,.09-.12.24.24,0,0,1,.15-.05h.39a.26.26,0,0,1,.17.05.26.26,0,0,1,.09.13l1,3.28.1.35.08.33q0-.16.06-.33l.08-.35,1-3.26a.26.26,0,0,1,.1-.13.27.27,0,0,1,.17-.05Z"/><path class="cls-4" d="M154,36.41a1.7,1.7,0,0,1-.4.35,2.45,2.45,0,0,1-.49.24,3.13,3.13,0,0,1-.54.14,3.3,3.3,0,0,1-.55,0,2.58,2.58,0,0,1-1-.18,2.12,2.12,0,0,1-.76-.52,2.38,2.38,0,0,1-.5-.85,3.44,3.44,0,0,1-.18-1.16,3,3,0,0,1,.16-1,2.33,2.33,0,0,1,.47-.8,2.15,2.15,0,0,1,.75-.53,2.45,2.45,0,0,1,1-.19,2.28,2.28,0,0,1,.84.15,1.92,1.92,0,0,1,.67.44,2,2,0,0,1,.44.71,2.7,2.7,0,0,1,.16,1,.58.58,0,0,1,0,.28.19.19,0,0,1-.17.07h-3.39a3,3,0,0,0,.13.83,1.68,1.68,0,0,0,.33.59,1.32,1.32,0,0,0,.5.35,1.71,1.71,0,0,0,.65.12,1.9,1.9,0,0,0,.58-.08,2.75,2.75,0,0,0,.42-.17l.29-.17a.39.39,0,0,1,.2-.08.2.2,0,0,1,.17.08ZM153.28,34a1.75,1.75,0,0,0-.09-.57,1.27,1.27,0,0,0-.25-.45,1.14,1.14,0,0,0-.41-.29,1.39,1.39,0,0,0-.55-.1,1.37,1.37,0,0,0-1,.37,1.74,1.74,0,0,0-.46,1Z"/><path class="cls-4" d="M156.41,29.75v7.37h-.89V29.75Z"/><path class="cls-4" d="M159,29.75v7.37h-.89V29.75Z"/><path class="cls-4" d="M169.87,37.12H169a.66.66,0,0,1-.23,0,.56.56,0,0,1-.19-.15l-.73-.73a3.63,3.63,0,0,1-1.08.72,3.33,3.33,0,0,1-1.35.27,2.33,2.33,0,0,1-.78-.14,2.18,2.18,0,0,1-.69-.39,2,2,0,0,1-.49-.63,1.84,1.84,0,0,1-.19-.83,1.86,1.86,0,0,1,.12-.66,2.14,2.14,0,0,1,.33-.58,2.59,2.59,0,0,1,.5-.48,3.28,3.28,0,0,1,.63-.36,3.13,3.13,0,0,1-.45-.75,2,2,0,0,1-.15-.75,1.77,1.77,0,0,1,.13-.68,1.61,1.61,0,0,1,.38-.56,1.82,1.82,0,0,1,.61-.37,2.22,2.22,0,0,1,.8-.14,2,2,0,0,1,.72.13,1.84,1.84,0,0,1,.56.34,1.6,1.6,0,0,1,.37.49,1.51,1.51,0,0,1,.16.58l-.56.11q-.16,0-.24-.15a1.21,1.21,0,0,0-.11-.27,1,1,0,0,0-.2-.26,1,1,0,0,0-.3-.19,1,1,0,0,0-.4-.07,1.23,1.23,0,0,0-.45.08,1,1,0,0,0-.34.22,1,1,0,0,0-.22.33,1.14,1.14,0,0,0-.07.42,1.37,1.37,0,0,0,0,.33,1.41,1.41,0,0,0,.13.33,2.19,2.19,0,0,0,.22.33,4.36,4.36,0,0,0,.33.36l2.06,2.1a3.77,3.77,0,0,0,.31-.71,3.61,3.61,0,0,0,.15-.73.25.25,0,0,1,.06-.15.18.18,0,0,1,.14-.06h.55a3.82,3.82,0,0,1-.18,1.13,4,4,0,0,1-.5,1Zm-4.62-3.53a2.12,2.12,0,0,0-.8.68,1.53,1.53,0,0,0-.27.87,1.27,1.27,0,0,0,.44,1,1.35,1.35,0,0,0,.44.26,1.54,1.54,0,0,0,.51.09,2.39,2.39,0,0,0,1-.21,2.57,2.57,0,0,0,.78-.55Z"/><path class="cls-4" d="M174.64,29.75v7.37h-.89V29.75Z"/><path class="cls-4" d="M177.47,30.46a.57.57,0,0,1-.05.24.71.71,0,0,1-.14.2.65.65,0,0,1-.21.14.62.62,0,0,1-.25.05.59.59,0,0,1-.24-.05.63.63,0,0,1-.2-.14.68.68,0,0,1-.13-.2.58.58,0,0,1-.05-.24.62.62,0,0,1,.05-.25.66.66,0,0,1,.13-.21.63.63,0,0,1,.2-.14.59.59,0,0,1,.24,0,.63.63,0,0,1,.25,0,.65.65,0,0,1,.21.14.68.68,0,0,1,.14.21A.6.6,0,0,1,177.47,30.46Zm-.19,1.59v5.06h-.89V32.05Z"/><path class="cls-4" d="M183.26,32.25v.33q0,.17-.21.21l-.58.08a1.65,1.65,0,0,1,0,1.4,1.54,1.54,0,0,1-.39.52,1.74,1.74,0,0,1-.6.33,2.42,2.42,0,0,1-.76.12,2.54,2.54,0,0,1-.67-.09.9.9,0,0,0-.24.21.37.37,0,0,0-.08.23.3.3,0,0,0,.15.27,1.06,1.06,0,0,0,.39.13,4.11,4.11,0,0,0,.55,0l.63,0a6,6,0,0,1,.63.08,1.91,1.91,0,0,1,.55.18,1,1,0,0,1,.39.35,1,1,0,0,1,.15.57,1.32,1.32,0,0,1-.16.63,1.71,1.71,0,0,1-.47.54,2.42,2.42,0,0,1-.75.38,3.25,3.25,0,0,1-1,.14,3.81,3.81,0,0,1-1-.11,2.27,2.27,0,0,1-.69-.29,1.29,1.29,0,0,1-.41-.43,1,1,0,0,1-.14-.51.91.91,0,0,1,.23-.63,1.63,1.63,0,0,1,.65-.42.92.92,0,0,1-.36-.27.71.71,0,0,1-.13-.45.7.7,0,0,1,0-.23.94.94,0,0,1,.12-.23,1.28,1.28,0,0,1,.2-.22,1.32,1.32,0,0,1,.28-.18,1.56,1.56,0,0,1-.59-.56,1.53,1.53,0,0,1-.21-.81,1.56,1.56,0,0,1,.14-.67,1.49,1.49,0,0,1,.4-.52,1.82,1.82,0,0,1,.61-.33,2.66,2.66,0,0,1,1.39,0,2,2,0,0,1,.52.21Zm-.9,5.14a.43.43,0,0,0-.1-.3.71.71,0,0,0-.28-.18,1.82,1.82,0,0,0-.41-.09l-.5,0-.53,0-.52,0a1.38,1.38,0,0,0-.46.33.67.67,0,0,0-.18.46.61.61,0,0,0,.09.32.75.75,0,0,0,.27.25,1.56,1.56,0,0,0,.45.17,3.28,3.28,0,0,0,1.29,0,1.62,1.62,0,0,0,.48-.19.91.91,0,0,0,.3-.28A.67.67,0,0,0,182.36,37.39Zm-1.6-2.75a1.38,1.38,0,0,0,.47-.07,1,1,0,0,0,.35-.21.87.87,0,0,0,.21-.32,1.17,1.17,0,0,0,.07-.41,1,1,0,0,0-.28-.74,1.36,1.36,0,0,0-1.64,0,1,1,0,0,0-.28.74,1.14,1.14,0,0,0,.07.41.89.89,0,0,0,.21.32,1,1,0,0,0,.35.21A1.38,1.38,0,0,0,180.75,34.64Z"/><path class="cls-4" d="M185.38,32.73a2.68,2.68,0,0,1,.72-.55A2,2,0,0,1,187,32a1.83,1.83,0,0,1,.73.14,1.43,1.43,0,0,1,.53.39,1.76,1.76,0,0,1,.32.61,2.61,2.61,0,0,1,.11.78v3.23h-.89V33.89a1.37,1.37,0,0,0-.26-.89,1,1,0,0,0-.8-.32,1.5,1.5,0,0,0-.74.19,2.43,2.43,0,0,0-.63.52v3.73h-.9V29.75h.9Z"/><path class="cls-4" d="M191.84,37.2a1.22,1.22,0,0,1-.92-.33,1.33,1.33,0,0,1-.32-1V32.8H190a.2.2,0,0,1-.14,0,.19.19,0,0,1-.05-.15v-.35l.83-.1.21-1.56a.22.22,0,0,1,.07-.12.2.2,0,0,1,.14,0h.45v1.75h1.46v.65h-1.46v3a.65.65,0,0,0,.15.47.54.54,0,0,0,.4.16.7.7,0,0,0,.24,0l.18-.08.13-.08a.17.17,0,0,1,.09,0,.15.15,0,0,1,.13.08l.26.43a1.66,1.66,0,0,1-.56.34A1.89,1.89,0,0,1,191.84,37.2Z"/><path class="cls-4" d="M195.12,32.73a2.69,2.69,0,0,1,.72-.55,1.94,1.94,0,0,1,.91-.21,1.83,1.83,0,0,1,.73.14,1.42,1.42,0,0,1,.53.39,1.74,1.74,0,0,1,.32.61,2.64,2.64,0,0,1,.11.78v3.23h-.89V33.89a1.37,1.37,0,0,0-.26-.89,1,1,0,0,0-.8-.32,1.5,1.5,0,0,0-.74.19,2.43,2.43,0,0,0-.63.52v3.73h-.89V29.75h.89Z"/><path class="cls-4" d="M202.27,32a2.58,2.58,0,0,1,1,.19,2.14,2.14,0,0,1,.76.52,2.3,2.3,0,0,1,.48.82,3.55,3.55,0,0,1,0,2.16,2.31,2.31,0,0,1-.48.82,2.12,2.12,0,0,1-.76.52,2.62,2.62,0,0,1-1,.18,2.65,2.65,0,0,1-1-.18,2.12,2.12,0,0,1-.76-.52,2.31,2.31,0,0,1-.48-.82,3.55,3.55,0,0,1,0-2.16,2.3,2.3,0,0,1,.48-.82,2.14,2.14,0,0,1,.76-.52A2.62,2.62,0,0,1,202.27,32Zm0,4.52a1.3,1.3,0,0,0,1.12-.5,2.86,2.86,0,0,0,0-2.81,1.3,1.3,0,0,0-1.12-.5,1.57,1.57,0,0,0-.66.13,1.23,1.23,0,0,0-.47.38,1.66,1.66,0,0,0-.28.6,3.23,3.23,0,0,0-.09.81,2.32,2.32,0,0,0,.37,1.4A1.32,1.32,0,0,0,202.27,36.49Z"/><path class="cls-4" d="M210.29,32.05v5.06h-.53a.23.23,0,0,1-.24-.19l-.07-.54a2.8,2.8,0,0,1-.74.59,1.94,1.94,0,0,1-.94.22,1.83,1.83,0,0,1-.73-.14,1.46,1.46,0,0,1-.53-.39,1.64,1.64,0,0,1-.32-.6,2.68,2.68,0,0,1-.11-.79V32.05H207v3.23a1.35,1.35,0,0,0,.26.89,1,1,0,0,0,.8.31,1.51,1.51,0,0,0,.74-.19,2.35,2.35,0,0,0,.63-.52V32.05Z"/><path class="cls-4" d="M214.93,32.89a.2.2,0,0,1-.19.11.35.35,0,0,1-.17-.05l-.23-.12a2.19,2.19,0,0,0-.33-.12,1.56,1.56,0,0,0-.45-.06,1.32,1.32,0,0,0-.41.06,1,1,0,0,0-.31.16.7.7,0,0,0-.19.23.63.63,0,0,0-.07.29.48.48,0,0,0,.11.33,1,1,0,0,0,.3.23,2.67,2.67,0,0,0,.42.17l.48.15.48.18a1.78,1.78,0,0,1,.42.25,1.14,1.14,0,0,1,.3.37,1.12,1.12,0,0,1,.11.52,1.66,1.66,0,0,1-.12.65,1.42,1.42,0,0,1-.37.51,1.79,1.79,0,0,1-.6.34,2.47,2.47,0,0,1-.82.13,2.56,2.56,0,0,1-1-.17,2.43,2.43,0,0,1-.73-.44l.21-.34a.31.31,0,0,1,.09-.1.26.26,0,0,1,.14,0,.33.33,0,0,1,.19.07l.24.15a1.84,1.84,0,0,0,.35.16,1.61,1.61,0,0,0,.51.07,1.4,1.4,0,0,0,.46-.07,1,1,0,0,0,.32-.18.73.73,0,0,0,.19-.27.83.83,0,0,0,.06-.32.53.53,0,0,0-.11-.35.94.94,0,0,0-.3-.23,2.46,2.46,0,0,0-.42-.17l-.49-.15-.48-.18a1.7,1.7,0,0,1-.42-.26,1.17,1.17,0,0,1-.3-.38,1.25,1.25,0,0,1-.11-.55,1.35,1.35,0,0,1,.12-.56,1.37,1.37,0,0,1,.35-.47,1.72,1.72,0,0,1,.56-.32,2.26,2.26,0,0,1,.76-.12,2.42,2.42,0,0,1,.9.16,2.13,2.13,0,0,1,.69.43Z"/><path class="cls-4" d="M220.74,36.41a1.71,1.71,0,0,1-.4.35,2.45,2.45,0,0,1-.49.24,3.13,3.13,0,0,1-.54.14,3.3,3.3,0,0,1-.55,0,2.58,2.58,0,0,1-1-.18,2.12,2.12,0,0,1-.76-.52,2.39,2.39,0,0,1-.5-.85,3.44,3.44,0,0,1-.18-1.16,3,3,0,0,1,.16-1,2.34,2.34,0,0,1,.47-.8,2.15,2.15,0,0,1,.75-.53,2.45,2.45,0,0,1,1-.19,2.28,2.28,0,0,1,.84.15,1.92,1.92,0,0,1,.67.44,2,2,0,0,1,.44.71,2.71,2.71,0,0,1,.16,1,.58.58,0,0,1,0,.28.18.18,0,0,1-.17.07h-3.38a3,3,0,0,0,.13.83,1.68,1.68,0,0,0,.33.59,1.32,1.32,0,0,0,.5.35,1.71,1.71,0,0,0,.65.12,1.91,1.91,0,0,0,.58-.08,2.76,2.76,0,0,0,.42-.17l.29-.17a.39.39,0,0,1,.2-.08.2.2,0,0,1,.17.08ZM220,34a1.77,1.77,0,0,0-.09-.57,1.28,1.28,0,0,0-.25-.45,1.14,1.14,0,0,0-.41-.29,1.38,1.38,0,0,0-.54-.1,1.37,1.37,0,0,0-1,.37,1.75,1.75,0,0,0-.46,1Z"/></g></g></g></svg>