<svg xmlns="http://www.w3.org/2000/svg" viewBox="0 0 29.31 29.31"><defs><style>.cls-1{fill:#cbcaca;}</style></defs><title>upload_new_btn</title><g id="Layer_2" data-name="Layer 2"><g id="Layer_21" data-name="Layer 21"><path class="cls-1" d="M14.66,0A14.66,14.66,0,1,0,29.31,14.66,14.67,14.67,0,0,0,14.66,0Zm0,28.31A13.66,13.66,0,1,1,28.31,14.66,13.67,13.67,0,0,1,14.66,28.31Z"/><rect class="cls-1" x="6.95" y="21.12" width="15.42" height="1.23" rx="0.17" ry="0.17"/><path class="cls-1" d="M10.85,12a.17.17,0,0,0,.25,0L14,9v9.61a.17.17,0,0,0,.17.17h.88a.17.17,0,0,0,.17-.17V9L18.21,12a.18.18,0,0,0,.25,0l.62-.62a.17.17,0,0,0,0-.25l-4.3-4.3a.18.18,0,0,0-.25,0l-4.3,4.3a.17.17,0,0,0,0,.25Z"/></g></g></svg>