<svg id="Layer_1" data-name="Layer 1" xmlns="http://www.w3.org/2000/svg" xmlns:xlink="http://www.w3.org/1999/xlink" viewBox="0 0 240.35 240.35"><defs><style>.cls-1{fill:none;}.cls-2{clip-path:url(#clip-path);}.cls-3{fill:#696c78;}.cls-4{fill:#252e3f;}.cls-5{fill:url(#radial-gradient);}</style><clipPath id="clip-path" transform="translate(-129.55 -129.97)"><path class="cls-1" d="M197.94,248.88a.31.31,0,0,1-.07.2.19.19,0,0,1-.15.09,1.9,1.9,0,0,0-1.1.43,4.06,4.06,0,0,0-.88,1.41l-4.62,10.41q0,.14-.25.14a.28.28,0,0,1-.25-.14L188,256l-3,5.41a.28.28,0,0,1-.25.14.26.26,0,0,1-.26-.14L180,251a3.65,3.65,0,0,0-.9-1.36,2.45,2.45,0,0,0-1.31-.48.18.18,0,0,1-.14-.08.26.26,0,0,1-.06-.17q0-.25.15-.25.61,0,1.27.05t1.16.05q.55,0,1.31-.05t1.4-.05.15.25q0,.25-.09.25a1.78,1.78,0,0,0-1,.31.83.83,0,0,0-.35.69,1.41,1.41,0,0,0,.15.55l3.7,8.49,2.18-4-2-4.16a5.4,5.4,0,0,0-.88-1.44,1.76,1.76,0,0,0-1-.4.16.16,0,0,1-.12-.08.27.27,0,0,1-.06-.17q0-.25.13-.25a10.48,10.48,0,0,1,1.11.05,9.54,9.54,0,0,0,1,.05q.54,0,1.15-.05t1.23-.05.14.25q0,.25-.09.25-1.21.08-1.21.69a2.24,2.24,0,0,0,.28.85l1.31,2.66,1.31-2.44a2,2,0,0,0,.27-.87q0-.84-1.21-.89-.11,0-.11-.25a.3.3,0,0,1,.05-.17q.05-.08.11-.08.44,0,1.07.05t1,.05q.28,0,.82,0t1.15-.06.11.21q0,.28-.2.28a2.27,2.27,0,0,0-1.14.39A5,5,0,0,0,190.8,251l-1.74,3.22,2.35,4.8,3.48-8.09a2.2,2.2,0,0,0,.18-.82q0-.89-1.21-.95-.11,0-.11-.25t.16-.25q.44,0,1.05.05t.94.05a9.2,9.2,0,0,0,.92-.05q.54-.05,1-.05Q197.94,248.67,197.94,248.88Zm4.93,7.24q0,.25-.33.25h-5a9.17,9.17,0,0,0-.05,1,3.28,3.28,0,0,0,.69,2.24,2.49,2.49,0,0,0,2,.78,2.75,2.75,0,0,0,1.3-.34,3.07,3.07,0,0,0,1.05-.88l0,0a.21.21,0,0,1,.16.1.38.38,0,0,1,.08.24q0,.19-.58.79a4.23,4.23,0,0,1-1.26.92,3.33,3.33,0,0,1-1.42.32,3.6,3.6,0,0,1-2.75-1.2,4.15,4.15,0,0,1-1.11-2.94,4.37,4.37,0,0,1,1.09-3,3.54,3.54,0,0,1,2.77-1.23,3.27,3.27,0,0,1,2.36.92A2.78,2.78,0,0,1,202.88,256.13Zm-1.65-.8a1.5,1.5,0,0,0-.47-1.13,1.66,1.66,0,0,0-1.2-.45,1.56,1.56,0,0,0-1.21.58,3.18,3.18,0,0,0-.69,1.54l2.52-.07a2.43,2.43,0,0,0,.81-.11A.36.36,0,0,0,201.23,255.33ZM208,261c0,.17,0,.25-.14.25q-.37,0-1,0t-1.1,0q-.43,0-1.08,0t-1,0-.14-.25c0-.15,0-.23.14-.24a1.56,1.56,0,0,0,1-.37,2,2,0,0,0,.23-1.16v-8.41a1.69,1.69,0,0,0-.18-1,1.27,1.27,0,0,0-.83-.3q-.14,0-.14-.23t.14-.22a9.63,9.63,0,0,0,1.56-.52,2.31,2.31,0,0,0,.76-.47.27.27,0,0,1,.2-.1q.25,0,.25.14-.14,2-.14,3.15v7.91a2,2,0,0,0,.23,1.16,1.55,1.55,0,0,0,1,.37C207.92,260.77,208,260.85,208,261Zm5.1,0c0,.17,0,.25-.14.25q-.37,0-1,0t-1.1,0q-.43,0-1.08,0t-1,0-.14-.25c0-.15,0-.23.14-.24a1.56,1.56,0,0,0,1-.37,2,2,0,0,0,.23-1.16v-8.41a1.69,1.69,0,0,0-.18-1,1.27,1.27,0,0,0-.83-.3q-.14,0-.14-.23t.14-.22a9.63,9.63,0,0,0,1.56-.52,2.31,2.31,0,0,0,.76-.47.27.27,0,0,1,.2-.1q.25,0,.25.14-.14,2-.14,3.15v7.91a2,2,0,0,0,.23,1.16,1.55,1.55,0,0,0,1,.37C213,260.77,213.07,260.85,213.07,261Zm18.68-7.28q0,.23-.15.24a5.39,5.39,0,0,0-1.54.44,3.24,3.24,0,0,0-1.05.88L226.87,258a18,18,0,0,0,2,2,1.74,1.74,0,0,0,2.51-.15l0,0a.24.24,0,0,1,.18.1.34.34,0,0,1,.09.23q0,.13-.46.58a3.06,3.06,0,0,1-1,.66,3,3,0,0,1-1.13.21,2.82,2.82,0,0,1-1.49-.43,8.76,8.76,0,0,1-1.85-1.82,6.08,6.08,0,0,1-1.9,1.74,4.65,4.65,0,0,1-2.21.51,3.08,3.08,0,0,1-2.27-1,3.14,3.14,0,0,1-1-2.28q0-2.05,3.33-3.6a4.35,4.35,0,0,1-.75-1.1,2.63,2.63,0,0,1-.2-1,2.84,2.84,0,0,1,.77-2,2.53,2.53,0,0,1,1.94-.84,2.47,2.47,0,0,1,1.67.59,1.79,1.79,0,0,1,.68,1.39,1.87,1.87,0,0,1-.52,1.24,6.76,6.76,0,0,1-1.71,1.28l2.85,3.26a16.72,16.72,0,0,0,1.36-1.85,1.9,1.9,0,0,0,.27-.9.61.61,0,0,0-.39-.57,3.81,3.81,0,0,0-1.26-.26c-.1,0-.15-.09-.15-.24s0-.25.14-.25q.39,0,1.14,0,.94.06,1.54.06t1.42-.06q.66,0,1.06,0Q231.76,253.46,231.76,253.72Zm-6.4,5.2-3.26-3.71a3.66,3.66,0,0,0-1.84,2.84,2.37,2.37,0,0,0,.63,1.72,2.27,2.27,0,0,0,1.71.65A3.64,3.64,0,0,0,225.36,258.92Zm-.63-7.14a1.56,1.56,0,0,0-.32-1,1.1,1.1,0,0,0-.89-.38,1.07,1.07,0,0,0-.83.43,1.66,1.66,0,0,0-.37,1.11,3.14,3.14,0,0,0,.94,1.94,3.74,3.74,0,0,0,1.07-1A1.9,1.9,0,0,0,224.73,251.78Zm22.13,6.16a28.07,28.07,0,0,0-.67,3.33q-3.47-.11-4.94-.11t-4.87.11-.14-.25c0-.15,0-.23.14-.24a3.47,3.47,0,0,0,1.49-.41,1.31,1.31,0,0,0,.39-1.12v-8.53a1.82,1.82,0,0,0-.16-.89,1.06,1.06,0,0,0-.56-.41,5.28,5.28,0,0,0-1.17-.24q-.14,0-.14-.25t.14-.25q.61,0,1.45.05t1.36.05q.55,0,1.35-.05t1.44-.05c.1,0,.14.08.14.25s0,.25-.14.25a5.25,5.25,0,0,0-1.16.24,1,1,0,0,0-.55.4,1.86,1.86,0,0,0-.15.9v8.8a.94.94,0,0,0,1.05,1.07h1.79a3,3,0,0,0,1.88-.59,6,6,0,0,0,1.52-2.22s.08-.07.17-.07a.38.38,0,0,1,.22.07A.2.2,0,0,1,246.85,257.94Zm5.05,3.08q0,.25-.14.25-.37,0-1-.05t-1.09-.05q-.45,0-1.08.05t-.94.05-.14-.25c0-.15,0-.23.14-.24a1.56,1.56,0,0,0,1-.37,2,2,0,0,0,.22-1.16V255.9a1.64,1.64,0,0,0-.19-.95,1.25,1.25,0,0,0-.81-.3c-.1,0-.14-.08-.14-.24s0-.22.14-.22a9.58,9.58,0,0,0,1.55-.52,2.46,2.46,0,0,0,.76-.46.26.26,0,0,1,.2-.11q.25,0,.25.14-.15,2-.15,3.15v2.85a2,2,0,0,0,.22,1.16,1.59,1.59,0,0,0,1,.37C251.86,260.79,251.91,260.87,251.91,261Zm9.43-6.51q0,.49-.24.49l-1.15,0a2.9,2.9,0,0,1,.2,1.05,2.82,2.82,0,0,1-1,2.17,3.33,3.33,0,0,1-2.33.87h-.36a2.84,2.84,0,0,0-1.15.19q-.42.19-.42.44a.6.6,0,0,0,.35.52,2,2,0,0,0,1,.21l2.1,0a3.69,3.69,0,0,1,2.11.57,1.76,1.76,0,0,1,.75,1.51,3.11,3.11,0,0,1-1.59,2.56,6.49,6.49,0,0,1-3.77,1.1,4,4,0,0,1-2.41-.7,2,2,0,0,1-1-1.69,1.88,1.88,0,0,1,.62-1.31,3.77,3.77,0,0,1,1.46-.94,2.32,2.32,0,0,1-.92-.72,1.54,1.54,0,0,1-.35-.93q0-.33.67-.7a4.39,4.39,0,0,1,1.38-.5,3.06,3.06,0,0,1-1.21-1,2.44,2.44,0,0,1-.44-1.41,3,3,0,0,1,1-2.18,3.19,3.19,0,0,1,2.29-.93,4.09,4.09,0,0,1,1.39.24,3.19,3.19,0,0,1,1.13.66l1.64-.05Q261.34,254,261.34,254.52Zm-1.24,8.7a1,1,0,0,0-.41-.89,2.72,2.72,0,0,0-1.38-.29l-2.1,0a3.1,3.1,0,0,1-1.11-.18A1.8,1.8,0,0,0,254,263.4a1.72,1.72,0,0,0,.75,1.45,3.13,3.13,0,0,0,1.91.56,4.51,4.51,0,0,0,2.42-.63A1.82,1.82,0,0,0,260.09,263.22ZM258.45,256a3.17,3.17,0,0,0-.36-1.7,1.27,1.27,0,0,0-1.14-.54q-1.5,0-1.5,2.54a3.09,3.09,0,0,0,.35,1.67,1.28,1.28,0,0,0,1.15.52Q258.45,258.48,258.45,256Zm13.24,5q0,.25-.15.25-.36,0-.9-.05t-1-.05q-.45,0-1,.05t-.9.05-.15-.25c0-.15,0-.23.15-.24a1.12,1.12,0,0,0,.82-.35,2.33,2.33,0,0,0,.2-1.18v-3q0-2-1.78-2a2.53,2.53,0,0,0-1.94.91v4.08a2,2,0,0,0,.24,1.13,1.3,1.3,0,0,0,.93.4c.1,0,.15.09.15.24s0,.25-.14.25q-.37,0-1-.05t-1.11-.05q-.45,0-1,.05a8.64,8.64,0,0,1-.89.05c-.1,0-.14-.08-.14-.25s0-.23.14-.24a1.5,1.5,0,0,0,1-.36,2,2,0,0,0,.23-1.17v-8.41a1.73,1.73,0,0,0-.18-1,1.24,1.24,0,0,0-.82-.3q-.14,0-.14-.23t.14-.24a5.78,5.78,0,0,0,2.29-1,.4.4,0,0,1,.23-.11q.25,0,.25.14-.14,1.49-.14,3.15v3.07a3.8,3.8,0,0,1,2.56-1.23,2.82,2.82,0,0,1,2,.71,2.51,2.51,0,0,1,.74,1.9v3.46a2,2,0,0,0,.23,1.16,1.56,1.56,0,0,0,1,.37C271.65,260.79,271.7,260.87,271.7,261Zm6-7q0,.49-.24.49l-2.7-.07v4.35q0,1.7,1.21,1.7a2.7,2.7,0,0,0,1.37-.35.16.16,0,0,1,.13.1.38.38,0,0,1,.06.2q0,.23-.67.61a3,3,0,0,1-1.51.39,2.19,2.19,0,0,1-1.65-.63,2.28,2.28,0,0,1-.61-1.66v-.08l0-4.4q0-.25-.22-.25h-.69q-.2,0-.2-.23a.29.29,0,0,1,.16-.27,7,7,0,0,0,2.19-2.1.3.3,0,0,1,.25-.15c.17,0,.25,0,.25.14l-.07,1.73h2.66Q277.73,253.57,277.73,254.06Zm10.36,7q0,.25-.14.25-.36,0-.9-.05t-1-.05q-.45,0-1,.05t-.9.05-.15-.25c0-.15,0-.23.15-.24a1.12,1.12,0,0,0,.82-.35,2.32,2.32,0,0,0,.2-1.18v-3q0-2-1.78-2a2.53,2.53,0,0,0-1.94.91v4.08a2,2,0,0,0,.24,1.13,1.3,1.3,0,0,0,.93.4c.1,0,.15.09.15.24s0,.25-.14.25q-.37,0-1-.05t-1.11-.05q-.45,0-1,.05a8.64,8.64,0,0,1-.89.05c-.1,0-.14-.08-.14-.25s0-.23.14-.24a1.5,1.5,0,0,0,1-.36,2,2,0,0,0,.23-1.17v-8.41a1.73,1.73,0,0,0-.18-1,1.24,1.24,0,0,0-.82-.3q-.14,0-.14-.23t.14-.24a5.78,5.78,0,0,0,2.29-1,.4.4,0,0,1,.23-.11q.25,0,.25.14-.14,1.49-.14,3.15v3.07a3.8,3.8,0,0,1,2.56-1.23,2.82,2.82,0,0,1,2,.71,2.51,2.51,0,0,1,.74,1.9v3.46a2,2,0,0,0,.23,1.16,1.56,1.56,0,0,0,1,.37C288,260.79,288.08,260.87,288.08,261Zm8.85-3.61a4,4,0,0,1-1.17,3,4.56,4.56,0,0,1-6.09,0,4,4,0,0,1-1.18-3,4.15,4.15,0,0,1,1.19-3,4.43,4.43,0,0,1,6.08,0A4.16,4.16,0,0,1,296.93,257.41Zm-1.83,0a4.84,4.84,0,0,0-.64-2.65,2,2,0,0,0-3.5,0,4.82,4.82,0,0,0-.64,2.65,4.69,4.69,0,0,0,.63,2.6,2.09,2.09,0,0,0,3.52,0A4.68,4.68,0,0,0,295.1,257.4Zm11.47,3.28c0,.13,0,.2-.14.21a5,5,0,0,0-2.26.63.41.41,0,0,1-.25.1q-.18,0-.18-.14l.07-1.14a3.84,3.84,0,0,1-2.43,1.21,2.42,2.42,0,0,1-2.63-2.61v-3.39a1.87,1.87,0,0,0-.21-1.07,1,1,0,0,0-.82-.26h-.26c-.09,0-.14-.08-.14-.23s0-.29.14-.29a12.35,12.35,0,0,0,2.75-.41q.16,0,.16.23v5a2.31,2.31,0,0,0,.39,1.49,1.51,1.51,0,0,0,1.23.47,2.13,2.13,0,0,0,.94-.2,3.07,3.07,0,0,0,.87-.71v-4a1.85,1.85,0,0,0-.21-1.07,1.05,1.05,0,0,0-.85-.27h-.25c-.09,0-.14-.08-.14-.23s0-.29.14-.29a12.42,12.42,0,0,0,2.75-.41q.16,0,.16.23v5.78a1.39,1.39,0,0,0,.18.84,1.37,1.37,0,0,0,.83.3C306.52,260.44,306.57,260.52,306.57,260.68Zm6.73-1.74a2.36,2.36,0,0,1-.87,1.86,3.1,3.1,0,0,1-2.1.75,7.25,7.25,0,0,1-1.34-.19,5.75,5.75,0,0,0-.92-.14q-.07-.63-.33-1.93,0-.14.26-.14t.26.14a2.41,2.41,0,0,0,.82,1.17,2,2,0,0,0,1.27.5,1.44,1.44,0,0,0,1.06-.37,1.4,1.4,0,0,0,.38-1,1.06,1.06,0,0,0-.31-.75,5,5,0,0,0-1.36-.81,5.09,5.09,0,0,1-1.81-1.18,2.1,2.1,0,0,1,.39-3,3,3,0,0,1,1.95-.68,7.56,7.56,0,0,1,1.32.16,4.24,4.24,0,0,0,.62.09q0,1.07.12,1.82c0,.09-.09.14-.26.14s-.24,0-.25-.14a1.91,1.91,0,0,0-.5-1.07,1.27,1.27,0,0,0-.95-.41q-1.41,0-1.41,1.23a1.1,1.1,0,0,0,.33.77,5.8,5.8,0,0,0,1.45.92,6.11,6.11,0,0,1,1.76,1.16A1.64,1.64,0,0,1,313.3,258.94Zm8.28-2.81q0,.25-.33.25h-5a9.29,9.29,0,0,0-.05,1,3.28,3.28,0,0,0,.69,2.24,2.49,2.49,0,0,0,2,.78,2.75,2.75,0,0,0,1.3-.34,3.07,3.07,0,0,0,1.05-.88l0,0a.21.21,0,0,1,.16.1.38.38,0,0,1,.08.24q0,.19-.58.79a4.23,4.23,0,0,1-1.26.92,3.32,3.32,0,0,1-1.42.32,3.61,3.61,0,0,1-2.75-1.2,4.15,4.15,0,0,1-1.11-2.94,4.37,4.37,0,0,1,1.09-3,3.54,3.54,0,0,1,2.77-1.23,3.27,3.27,0,0,1,2.36.92A2.78,2.78,0,0,1,321.58,256.13Zm-1.65-.8a1.5,1.5,0,0,0-.47-1.13,1.66,1.66,0,0,0-1.2-.45,1.56,1.56,0,0,0-1.21.58,3.18,3.18,0,0,0-.69,1.54l2.52-.07a2.43,2.43,0,0,0,.81-.11A.36.36,0,0,0,319.93,255.33ZM181,274.27a2.88,2.88,0,0,1-1.33-.31l.1-.66a2.34,2.34,0,0,0,1.25.41c.5,0,.85-.26.85-.72s-.19-.61-.91-.94c-.9-.41-1.23-.7-1.23-1.39a1.28,1.28,0,0,1,1.45-1.26,2.1,2.1,0,0,1,1.08.27l-.1.65a1.68,1.68,0,0,0-1-.35c-.54,0-.79.29-.79.64s.18.54.9.87c.92.42,1.24.74,1.24,1.46A1.34,1.34,0,0,1,181,274.27Zm5.09-4.22v4.17h-.65v-4.17H183.9v-.59h3.63l.1.59Zm5.8,4.21-1.46-2.05h-.49v2h-.65v-4.76h1.3c1,0,1.58.48,1.58,1.35a1.28,1.28,0,0,1-1,1.32l1.41,2ZM190.55,270h-.62v1.63h.55c.63,0,1-.28,1-.82S191.18,270,190.55,270Zm5.25-.59h.65l1.83,4.69-.63.14-.57-1.48h-2l-.54,1.43h-.66Zm-.45,2.78h1.52l-.77-2Zm5.87-2.17v4.17h-.65v-4.17h-1.52v-.59h3.63l.1.59Zm3.21,4.17v-4.76H207v.59h-1.92v1.38h1.49l.1.59h-1.59v1.6h2v.59Zm6.35.09a2.48,2.48,0,0,1-.06-4.94,2.47,2.47,0,0,1,1.45.41l-.1.66a2.13,2.13,0,0,0-1.35-.48c-1,0-1.59.73-1.59,1.88s.56,1.87,1.65,1.87a1.85,1.85,0,0,0,1-.23v-1.26h-1.1l-.09-.59h1.83v2.23A3,3,0,0,1,210.78,274.31Zm3.64-.09v-4.76h.65v4.76Zm4.73.09a2.48,2.48,0,0,1,0-4.94,2.28,2.28,0,0,1,1.35.39l-.1.66a2,2,0,0,0-1.26-.46c-1,0-1.54.73-1.54,1.88s.58,1.87,1.54,1.87a2.27,2.27,0,0,0,1.34-.48l.1.61A2.51,2.51,0,0,1,219.14,274.31Zm7.91-.09H225.7v-4.76h1.38a2.24,2.24,0,0,1,2.5,2.37A2.28,2.28,0,0,1,227.05,274.22Zm0-4.17h-.75v3.59h.73a1.63,1.63,0,0,0,1.83-1.79A1.65,1.65,0,0,0,227.1,270Zm4.33,4.17v-4.76H234v.59h-1.92v1.38h1.49l.1.59h-1.59v1.6h2v.59Zm5.49-1.93h-.5v1.93h-.65v-4.76H237c1,0,1.61.49,1.61,1.37S238,272.28,236.92,272.28ZM237,270h-.58v1.68H237c.65,0,1-.27,1-.86S237.65,270,237,270Zm5.24,0v4.17h-.65v-4.17h-1.52v-.59h3.63l.1.59Zm6.27,4.17V272H246.1v2.19h-.65v-4.76h.65v2h2.41v-2h.65v4.76Zm7.43-2.08v1.37h-.54v-1.37h-1.33v-.51h1.33v-1.37h.54v1.37h1.33v.51Zm7.6,2.08h-1.35v-4.76h1.38a2.24,2.24,0,0,1,2.5,2.37A2.28,2.28,0,0,1,263.54,274.22Zm0-4.17h-.75v3.59h.73a1.63,1.63,0,0,0,1.83-1.79A1.65,1.65,0,0,0,263.59,270Zm4.37,4.17v-4.76h.65v4.76Zm4.84.09a2.48,2.48,0,0,1-.06-4.94,2.47,2.47,0,0,1,1.45.41l-.1.66a2.13,2.13,0,0,0-1.35-.48c-1,0-1.59.73-1.59,1.88s.56,1.87,1.65,1.87a1.85,1.85,0,0,0,1-.23v-1.26h-1.1l-.09-.59h1.83v2.23A3,3,0,0,1,272.79,274.31Zm3.64-.09v-4.76h.65v4.76Zm4.5-4.17v4.17h-.65v-4.17h-1.52v-.59h3.63l.1.59Zm4.15-.61h.65l1.83,4.69-.63.14-.57-1.48h-2l-.54,1.43h-.66Zm-.45,2.78h1.52l-.77-2Zm4.59,2v-4.76h.65v4.17h1.72l.09.59Zm9.1,0h-.58l-1.83-4.69.65-.14,1.48,4,1.46-3.91h.68Zm3.54,0v-4.76h.65v4.76Zm3.85.05a2.88,2.88,0,0,1-1.33-.31l.1-.66a2.34,2.34,0,0,0,1.25.41c.5,0,.85-.26.85-.72s-.19-.61-.91-.94c-.9-.41-1.23-.7-1.23-1.39a1.28,1.28,0,0,1,1.45-1.26,2.1,2.1,0,0,1,1.08.27l-.1.65a1.69,1.69,0,0,0-1-.35c-.54,0-.79.29-.79.64s.18.54.9.87c.92.42,1.24.74,1.24,1.46A1.34,1.34,0,0,1,305.72,274.27Zm3.34-.05v-4.76h.65v4.76Zm4.71.09a2.49,2.49,0,1,1,2.2-2.48A2.2,2.2,0,0,1,313.77,274.31Zm0-4.35c-.95,0-1.52.73-1.52,1.88s.59,1.88,1.52,1.88,1.52-.73,1.52-1.88S314.71,270,313.77,270Zm7.28,4.26-2.61-3.7v3.7h-.6v-4.76h.58l2.52,3.57v-3.57h.6v4.76Z"/></clipPath><radialGradient id="radial-gradient" cx="249.73" cy="250.14" r="120.17" gradientUnits="userSpaceOnUse"><stop offset="0" stop-color="#fff"/><stop offset="0.08" stop-color="#fff" stop-opacity="0.79"/><stop offset="0.17" stop-color="#fff" stop-opacity="0.61"/><stop offset="0.26" stop-color="#fff" stop-opacity="0.44"/><stop offset="0.36" stop-color="#fff" stop-opacity="0.31"/><stop offset="0.46" stop-color="#fff" stop-opacity="0.2"/><stop offset="0.56" stop-color="#fff" stop-opacity="0.11"/><stop offset="0.68" stop-color="#fff" stop-opacity="0.05"/><stop offset="0.81" stop-color="#fff" stop-opacity="0.01"/><stop offset="1" stop-color="#fff" stop-opacity="0"/></radialGradient></defs><title>logo_white_version</title><g class="cls-2"><g id="_Group_" data-name="&lt;Group&gt;"><path id="_Path_" data-name="&lt;Path&gt;" class="cls-1" d="M250.64,250.07a.91.91,0,0,1-.28.66.93.93,0,0,1-1.33,0,.94.94,0,1,1,1.61-.66Z" transform="translate(-129.55 -129.97)"/><path id="_Compound_Path_" data-name="&lt;Compound Path&gt;" class="cls-3" d="M231.76,253.72q0,.23-.15.24a5.39,5.39,0,0,0-1.54.44,3.24,3.24,0,0,0-1.05.88L226.87,258a18,18,0,0,0,2,2,1.74,1.74,0,0,0,2.51-.15l0,0a.24.24,0,0,1,.18.1.34.34,0,0,1,.09.23q0,.13-.46.58a3.06,3.06,0,0,1-1,.66,3,3,0,0,1-1.13.21,2.82,2.82,0,0,1-1.49-.43,8.76,8.76,0,0,1-1.85-1.82,6.08,6.08,0,0,1-1.9,1.74,4.65,4.65,0,0,1-2.21.51,3.08,3.08,0,0,1-2.27-1,3.14,3.14,0,0,1-1-2.28q0-2.05,3.33-3.6a4.35,4.35,0,0,1-.75-1.1,2.63,2.63,0,0,1-.2-1,2.84,2.84,0,0,1,.77-2,2.53,2.53,0,0,1,1.94-.84,2.47,2.47,0,0,1,1.67.59,1.79,1.79,0,0,1,.68,1.39,1.87,1.87,0,0,1-.52,1.24,6.76,6.76,0,0,1-1.71,1.28l2.85,3.26a16.72,16.72,0,0,0,1.36-1.85,1.9,1.9,0,0,0,.27-.9.61.61,0,0,0-.39-.57,3.81,3.81,0,0,0-1.26-.26c-.1,0-.15-.09-.15-.24s0-.25.14-.25q.39,0,1.14,0,.94.06,1.54.06t1.42-.06q.66,0,1.06,0Q231.76,253.46,231.76,253.72Zm-6.4,5.2-3.26-3.71a3.66,3.66,0,0,0-1.84,2.84,2.37,2.37,0,0,0,.63,1.72,2.27,2.27,0,0,0,1.71.65A3.64,3.64,0,0,0,225.36,258.92Zm-.63-7.14a1.56,1.56,0,0,0-.32-1,1.1,1.1,0,0,0-.89-.38,1.07,1.07,0,0,0-.83.43,1.66,1.66,0,0,0-.37,1.11,3.14,3.14,0,0,0,.94,1.94,3.74,3.74,0,0,0,1.07-1A1.9,1.9,0,0,0,224.73,251.78Z" transform="translate(-129.55 -129.97)"/><path class="cls-4" d="M197.94,248.88a.31.31,0,0,1-.07.2.19.19,0,0,1-.15.09,1.9,1.9,0,0,0-1.1.43,4.06,4.06,0,0,0-.88,1.41l-4.62,10.41q0,.14-.25.14a.28.28,0,0,1-.25-.14L188,256l-3,5.41a.28.28,0,0,1-.25.14.26.26,0,0,1-.26-.14L180,251a3.65,3.65,0,0,0-.9-1.36,2.45,2.45,0,0,0-1.31-.48.18.18,0,0,1-.14-.08.26.26,0,0,1-.06-.17q0-.25.15-.25.61,0,1.27.05t1.16.05q.55,0,1.31-.05t1.4-.05.15.25q0,.25-.09.25a1.78,1.78,0,0,0-1,.31.83.83,0,0,0-.35.69,1.41,1.41,0,0,0,.15.55l3.7,8.49,2.18-4-2-4.16a5.4,5.4,0,0,0-.88-1.44,1.76,1.76,0,0,0-1-.4.16.16,0,0,1-.12-.08.27.27,0,0,1-.06-.17q0-.25.13-.25a10.48,10.48,0,0,1,1.11.05,9.54,9.54,0,0,0,1,.05q.54,0,1.15-.05t1.23-.05.14.25q0,.25-.09.25-1.21.08-1.21.69a2.24,2.24,0,0,0,.28.85l1.31,2.66,1.31-2.44a2,2,0,0,0,.27-.87q0-.84-1.21-.89-.11,0-.11-.25a.3.3,0,0,1,.05-.17q.05-.08.11-.08.44,0,1.07.05t1,.05q.28,0,.82,0t1.15-.06.11.21q0,.28-.2.28a2.27,2.27,0,0,0-1.14.39A5,5,0,0,0,190.8,251l-1.74,3.22,2.35,4.8,3.48-8.09a2.2,2.2,0,0,0,.18-.82q0-.89-1.21-.95-.11,0-.11-.25t.16-.25q.44,0,1.05.05t.94.05a9.2,9.2,0,0,0,.92-.05q.54-.05,1-.05Q197.94,248.67,197.94,248.88Zm4.93,7.24q0,.25-.33.25h-5a9.17,9.17,0,0,0-.05,1,3.28,3.28,0,0,0,.69,2.24,2.49,2.49,0,0,0,2,.78,2.75,2.75,0,0,0,1.3-.34,3.07,3.07,0,0,0,1.05-.88l0,0a.21.21,0,0,1,.16.1.38.38,0,0,1,.08.24q0,.19-.58.79a4.23,4.23,0,0,1-1.26.92,3.33,3.33,0,0,1-1.42.32,3.6,3.6,0,0,1-2.75-1.2,4.15,4.15,0,0,1-1.11-2.94,4.37,4.37,0,0,1,1.09-3,3.54,3.54,0,0,1,2.77-1.23,3.27,3.27,0,0,1,2.36.92A2.78,2.78,0,0,1,202.88,256.13Zm-1.65-.8a1.5,1.5,0,0,0-.47-1.13,1.66,1.66,0,0,0-1.2-.45,1.56,1.56,0,0,0-1.21.58,3.18,3.18,0,0,0-.69,1.54l2.52-.07a2.43,2.43,0,0,0,.81-.11A.36.36,0,0,0,201.23,255.33ZM208,261c0,.17,0,.25-.14.25q-.37,0-1,0t-1.1,0q-.43,0-1.08,0t-1,0-.14-.25c0-.15,0-.23.14-.24a1.56,1.56,0,0,0,1-.37,2,2,0,0,0,.23-1.16v-8.41a1.69,1.69,0,0,0-.18-1,1.27,1.27,0,0,0-.83-.3q-.14,0-.14-.23t.14-.22a9.63,9.63,0,0,0,1.56-.52,2.31,2.31,0,0,0,.76-.47.27.27,0,0,1,.2-.1q.25,0,.25.14-.14,2-.14,3.15v7.91a2,2,0,0,0,.23,1.16,1.55,1.55,0,0,0,1,.37C207.92,260.77,208,260.85,208,261Zm5.1,0c0,.17,0,.25-.14.25q-.37,0-1,0t-1.1,0q-.43,0-1.08,0t-1,0-.14-.25c0-.15,0-.23.14-.24a1.56,1.56,0,0,0,1-.37,2,2,0,0,0,.23-1.16v-8.41a1.69,1.69,0,0,0-.18-1,1.27,1.27,0,0,0-.83-.3q-.14,0-.14-.23t.14-.22a9.63,9.63,0,0,0,1.56-.52,2.31,2.31,0,0,0,.76-.47.27.27,0,0,1,.2-.1q.25,0,.25.14-.14,2-.14,3.15v7.91a2,2,0,0,0,.23,1.16,1.55,1.55,0,0,0,1,.37C213,260.77,213.07,260.85,213.07,261Zm33.78-3.06a28.07,28.07,0,0,0-.67,3.33q-3.47-.11-4.94-.11t-4.87.11-.14-.25c0-.15,0-.23.14-.24a3.47,3.47,0,0,0,1.49-.41,1.31,1.31,0,0,0,.39-1.12v-8.53a1.82,1.82,0,0,0-.16-.89,1.06,1.06,0,0,0-.56-.41,5.28,5.28,0,0,0-1.17-.24q-.14,0-.14-.25t.14-.25q.61,0,1.45.05t1.36.05q.55,0,1.35-.05t1.44-.05c.1,0,.14.08.14.25s0,.25-.14.25a5.25,5.25,0,0,0-1.16.24,1,1,0,0,0-.55.4,1.86,1.86,0,0,0-.15.9v8.8a.94.94,0,0,0,1.05,1.07h1.79a3,3,0,0,0,1.88-.59,6,6,0,0,0,1.52-2.22s.08-.07.17-.07a.38.38,0,0,1,.22.07A.2.2,0,0,1,246.85,257.94Zm5.05,3.08q0,.25-.14.25-.37,0-1-.05t-1.09-.05q-.45,0-1.08.05t-.94.05-.14-.25c0-.15,0-.23.14-.24a1.56,1.56,0,0,0,1-.37,2,2,0,0,0,.22-1.16V255.9a1.64,1.64,0,0,0-.19-.95,1.25,1.25,0,0,0-.81-.3c-.1,0-.14-.08-.14-.24s0-.22.14-.22a9.58,9.58,0,0,0,1.55-.52,2.46,2.46,0,0,0,.76-.46.26.26,0,0,1,.2-.11q.25,0,.25.14-.15,2-.15,3.15v2.85a2,2,0,0,0,.22,1.16,1.59,1.59,0,0,0,1,.37C251.86,260.79,251.91,260.87,251.91,261Zm-1.27-11a.91.91,0,0,1-.28.66.93.93,0,0,1-1.33,0,.94.94,0,1,1,1.61-.66Zm10.7,4.45q0,.49-.24.49l-1.15,0a2.9,2.9,0,0,1,.2,1.05,2.82,2.82,0,0,1-1,2.17,3.33,3.33,0,0,1-2.33.87h-.36a2.84,2.84,0,0,0-1.15.19q-.42.19-.42.44a.6.6,0,0,0,.35.52,2,2,0,0,0,1,.21l2.1,0a3.69,3.69,0,0,1,2.11.57,1.76,1.76,0,0,1,.75,1.51,3.11,3.11,0,0,1-1.59,2.56,6.49,6.49,0,0,1-3.77,1.1,4,4,0,0,1-2.41-.7,2,2,0,0,1-1-1.69,1.88,1.88,0,0,1,.62-1.31,3.77,3.77,0,0,1,1.46-.94,2.32,2.32,0,0,1-.92-.72,1.54,1.54,0,0,1-.35-.93q0-.33.67-.7a4.39,4.39,0,0,1,1.38-.5,3.06,3.06,0,0,1-1.21-1,2.44,2.44,0,0,1-.44-1.41,3,3,0,0,1,1-2.18,3.19,3.19,0,0,1,2.29-.93,4.09,4.09,0,0,1,1.39.24,3.19,3.19,0,0,1,1.13.66l1.64-.05Q261.34,254,261.34,254.52Zm-1.24,8.7a1,1,0,0,0-.41-.89,2.72,2.72,0,0,0-1.38-.29l-2.1,0a3.1,3.1,0,0,1-1.11-.18A1.8,1.8,0,0,0,254,263.4a1.72,1.72,0,0,0,.75,1.45,3.13,3.13,0,0,0,1.91.56,4.51,4.51,0,0,0,2.42-.63A1.82,1.82,0,0,0,260.09,263.22ZM258.45,256a3.17,3.17,0,0,0-.36-1.7,1.27,1.27,0,0,0-1.14-.54q-1.5,0-1.5,2.54a3.09,3.09,0,0,0,.35,1.67,1.28,1.28,0,0,0,1.15.52Q258.45,258.48,258.45,256Zm13.24,5q0,.25-.15.25-.36,0-.9-.05t-1-.05q-.45,0-1,.05t-.9.05-.15-.25c0-.15,0-.23.15-.24a1.12,1.12,0,0,0,.82-.35,2.33,2.33,0,0,0,.2-1.18v-3q0-2-1.78-2a2.53,2.53,0,0,0-1.94.91v4.08a2,2,0,0,0,.24,1.13,1.3,1.3,0,0,0,.93.4c.1,0,.15.09.15.24s0,.25-.14.25q-.37,0-1-.05t-1.11-.05q-.45,0-1,.05a8.64,8.64,0,0,1-.89.05c-.1,0-.14-.08-.14-.25s0-.23.14-.24a1.5,1.5,0,0,0,1-.36,2,2,0,0,0,.23-1.17v-8.41a1.73,1.73,0,0,0-.18-1,1.24,1.24,0,0,0-.82-.3q-.14,0-.14-.23t.14-.24a5.78,5.78,0,0,0,2.29-1,.4.4,0,0,1,.23-.11q.25,0,.25.14-.14,1.49-.14,3.15v3.07a3.8,3.8,0,0,1,2.56-1.23,2.82,2.82,0,0,1,2,.71,2.51,2.51,0,0,1,.74,1.9v3.46a2,2,0,0,0,.23,1.16,1.56,1.56,0,0,0,1,.37C271.65,260.79,271.7,260.87,271.7,261Zm6-7q0,.49-.24.49l-2.7-.07v4.35q0,1.7,1.21,1.7a2.7,2.7,0,0,0,1.37-.35.16.16,0,0,1,.13.1.38.38,0,0,1,.06.2q0,.23-.67.61a3,3,0,0,1-1.51.39,2.19,2.19,0,0,1-1.65-.63,2.28,2.28,0,0,1-.61-1.66v-.08l0-4.4q0-.25-.22-.25h-.69q-.2,0-.2-.23a.29.29,0,0,1,.16-.27,7,7,0,0,0,2.19-2.1.3.3,0,0,1,.25-.15c.17,0,.25,0,.25.14l-.07,1.73h2.66Q277.73,253.57,277.73,254.06Zm10.36,7q0,.25-.14.25-.36,0-.9-.05t-1-.05q-.45,0-1,.05t-.9.05-.15-.25c0-.15,0-.23.15-.24a1.12,1.12,0,0,0,.82-.35,2.32,2.32,0,0,0,.2-1.18v-3q0-2-1.78-2a2.53,2.53,0,0,0-1.94.91v4.08a2,2,0,0,0,.24,1.13,1.3,1.3,0,0,0,.93.4c.1,0,.15.09.15.24s0,.25-.14.25q-.37,0-1-.05t-1.11-.05q-.45,0-1,.05a8.64,8.64,0,0,1-.89.05c-.1,0-.14-.08-.14-.25s0-.23.14-.24a1.5,1.5,0,0,0,1-.36,2,2,0,0,0,.23-1.17v-8.41a1.73,1.73,0,0,0-.18-1,1.24,1.24,0,0,0-.82-.3q-.14,0-.14-.23t.14-.24a5.78,5.78,0,0,0,2.29-1,.4.4,0,0,1,.23-.11q.25,0,.25.14-.14,1.49-.14,3.15v3.07a3.8,3.8,0,0,1,2.56-1.23,2.82,2.82,0,0,1,2,.71,2.51,2.51,0,0,1,.74,1.9v3.46a2,2,0,0,0,.23,1.16,1.56,1.56,0,0,0,1,.37C288,260.79,288.08,260.87,288.08,261Zm8.85-3.61a4,4,0,0,1-1.17,3,4.56,4.56,0,0,1-6.09,0,4,4,0,0,1-1.18-3,4.15,4.15,0,0,1,1.19-3,4.43,4.43,0,0,1,6.08,0A4.16,4.16,0,0,1,296.93,257.41Zm-1.83,0a4.84,4.84,0,0,0-.64-2.65,2,2,0,0,0-3.5,0,4.82,4.82,0,0,0-.64,2.65,4.69,4.69,0,0,0,.63,2.6,2.09,2.09,0,0,0,3.52,0A4.68,4.68,0,0,0,295.1,257.4Zm11.47,3.28c0,.13,0,.2-.14.21a5,5,0,0,0-2.26.63.41.41,0,0,1-.25.1q-.18,0-.18-.14l.07-1.14a3.84,3.84,0,0,1-2.43,1.21,2.42,2.42,0,0,1-2.63-2.61v-3.39a1.87,1.87,0,0,0-.21-1.07,1,1,0,0,0-.82-.26h-.26c-.09,0-.14-.08-.14-.23s0-.29.14-.29a12.35,12.35,0,0,0,2.75-.41q.16,0,.16.23v5a2.31,2.31,0,0,0,.39,1.49,1.51,1.51,0,0,0,1.23.47,2.13,2.13,0,0,0,.94-.2,3.07,3.07,0,0,0,.87-.71v-4a1.85,1.85,0,0,0-.21-1.07,1.05,1.05,0,0,0-.85-.27h-.25c-.09,0-.14-.08-.14-.23s0-.29.14-.29a12.42,12.42,0,0,0,2.75-.41q.16,0,.16.23v5.78a1.39,1.39,0,0,0,.18.84,1.37,1.37,0,0,0,.83.3C306.52,260.44,306.57,260.52,306.57,260.68Zm6.73-1.74a2.36,2.36,0,0,1-.87,1.86,3.1,3.1,0,0,1-2.1.75,7.25,7.25,0,0,1-1.34-.19,5.75,5.75,0,0,0-.92-.14q-.07-.63-.33-1.93,0-.14.26-.14t.26.14a2.41,2.41,0,0,0,.82,1.17,2,2,0,0,0,1.27.5,1.44,1.44,0,0,0,1.06-.37,1.4,1.4,0,0,0,.38-1,1.06,1.06,0,0,0-.31-.75,5,5,0,0,0-1.36-.81,5.09,5.09,0,0,1-1.81-1.18,2.1,2.1,0,0,1,.39-3,3,3,0,0,1,1.95-.68,7.56,7.56,0,0,1,1.32.16,4.24,4.24,0,0,0,.62.09q0,1.07.12,1.82c0,.09-.09.14-.26.14s-.24,0-.25-.14a1.91,1.91,0,0,0-.5-1.07,1.27,1.27,0,0,0-.95-.41q-1.41,0-1.41,1.23a1.1,1.1,0,0,0,.33.77,5.8,5.8,0,0,0,1.45.92,6.11,6.11,0,0,1,1.76,1.16A1.64,1.64,0,0,1,313.3,258.94Zm8.28-2.81q0,.25-.33.25h-5a9.29,9.29,0,0,0-.05,1,3.28,3.28,0,0,0,.69,2.24,2.49,2.49,0,0,0,2,.78,2.75,2.75,0,0,0,1.3-.34,3.07,3.07,0,0,0,1.05-.88l0,0a.21.21,0,0,1,.16.1.38.38,0,0,1,.08.24q0,.19-.58.79a4.23,4.23,0,0,1-1.26.92,3.32,3.32,0,0,1-1.42.32,3.61,3.61,0,0,1-2.75-1.2,4.15,4.15,0,0,1-1.11-2.94,4.37,4.37,0,0,1,1.09-3,3.54,3.54,0,0,1,2.77-1.23,3.27,3.27,0,0,1,2.36.92A2.78,2.78,0,0,1,321.58,256.13Zm-1.65-.8a1.5,1.5,0,0,0-.47-1.13,1.66,1.66,0,0,0-1.2-.45,1.56,1.56,0,0,0-1.21.58,3.18,3.18,0,0,0-.69,1.54l2.52-.07a2.43,2.43,0,0,0,.81-.11A.36.36,0,0,0,319.93,255.33Z" transform="translate(-129.55 -129.97)"/><path class="cls-3" d="M181,274.27a2.88,2.88,0,0,1-1.33-.31l.1-.66a2.34,2.34,0,0,0,1.25.41c.5,0,.85-.26.85-.72s-.19-.61-.91-.94c-.9-.41-1.23-.7-1.23-1.39a1.28,1.28,0,0,1,1.45-1.26,2.1,2.1,0,0,1,1.08.27l-.1.65a1.68,1.68,0,0,0-1-.35c-.54,0-.79.29-.79.64s.18.54.9.87c.92.42,1.24.74,1.24,1.46A1.34,1.34,0,0,1,181,274.27Zm5.09-4.22v4.17h-.65v-4.17H183.9v-.59h3.63l.1.59Zm5.8,4.21-1.46-2.05h-.49v2h-.65v-4.76h1.3c1,0,1.58.48,1.58,1.35a1.28,1.28,0,0,1-1,1.32l1.41,2ZM190.55,270h-.62v1.63h.55c.63,0,1-.28,1-.82S191.18,270,190.55,270Zm5.25-.59h.65l1.83,4.69-.63.14-.57-1.48h-2l-.54,1.43h-.66Zm-.45,2.78h1.52l-.77-2Zm5.87-2.17v4.17h-.65v-4.17h-1.52v-.59h3.63l.1.59Zm3.21,4.17v-4.76H207v.59h-1.92v1.38h1.49l.1.59h-1.59v1.6h2v.59Zm6.35.09a2.48,2.48,0,0,1-.06-4.94,2.47,2.47,0,0,1,1.45.41l-.1.66a2.13,2.13,0,0,0-1.35-.48c-1,0-1.59.73-1.59,1.88s.56,1.87,1.65,1.87a1.85,1.85,0,0,0,1-.23v-1.26h-1.1l-.09-.59h1.83v2.23A3,3,0,0,1,210.78,274.31Zm3.64-.09v-4.76h.65v4.76Zm4.73.09a2.48,2.48,0,0,1,0-4.94,2.28,2.28,0,0,1,1.35.39l-.1.66a2,2,0,0,0-1.26-.46c-1,0-1.54.73-1.54,1.88s.58,1.87,1.54,1.87a2.27,2.27,0,0,0,1.34-.48l.1.61A2.51,2.51,0,0,1,219.14,274.31Zm7.91-.09H225.7v-4.76h1.38a2.24,2.24,0,0,1,2.5,2.37A2.28,2.28,0,0,1,227.05,274.22Zm0-4.17h-.75v3.59h.73a1.63,1.63,0,0,0,1.83-1.79A1.65,1.65,0,0,0,227.1,270Zm4.33,4.17v-4.76H234v.59h-1.92v1.38h1.49l.1.59h-1.59v1.6h2v.59Zm5.49-1.93h-.5v1.93h-.65v-4.76H237c1,0,1.61.49,1.61,1.37S238,272.28,236.92,272.28ZM237,270h-.58v1.68H237c.65,0,1-.27,1-.86S237.65,270,237,270Zm5.24,0v4.17h-.65v-4.17h-1.52v-.59h3.63l.1.59Zm6.27,4.17V272H246.1v2.19h-.65v-4.76h.65v2h2.41v-2h.65v4.76Zm7.43-2.08v1.37h-.54v-1.37h-1.33v-.51h1.33v-1.37h.54v1.37h1.33v.51Zm7.6,2.08h-1.35v-4.76h1.38a2.24,2.24,0,0,1,2.5,2.37A2.28,2.28,0,0,1,263.54,274.22Zm0-4.17h-.75v3.59h.73a1.63,1.63,0,0,0,1.83-1.79A1.65,1.65,0,0,0,263.59,270Zm4.37,4.17v-4.76h.65v4.76Zm4.84.09a2.48,2.48,0,0,1-.06-4.94,2.47,2.47,0,0,1,1.45.41l-.1.66a2.13,2.13,0,0,0-1.35-.48c-1,0-1.59.73-1.59,1.88s.56,1.87,1.65,1.87a1.85,1.85,0,0,0,1-.23v-1.26h-1.1l-.09-.59h1.83v2.23A3,3,0,0,1,272.79,274.31Zm3.64-.09v-4.76h.65v4.76Zm4.5-4.17v4.17h-.65v-4.17h-1.52v-.59h3.63l.1.59Zm4.15-.61h.65l1.83,4.69-.63.14-.57-1.48h-2l-.54,1.43h-.66Zm-.45,2.78h1.52l-.77-2Zm4.59,2v-4.76h.65v4.17h1.72l.09.59Zm9.1,0h-.58l-1.83-4.69.65-.14,1.48,4,1.46-3.91h.68Zm3.54,0v-4.76h.65v4.76Zm3.85.05a2.88,2.88,0,0,1-1.33-.31l.1-.66a2.34,2.34,0,0,0,1.25.41c.5,0,.85-.26.85-.72s-.19-.61-.91-.94c-.9-.41-1.23-.7-1.23-1.39a1.28,1.28,0,0,1,1.45-1.26,2.1,2.1,0,0,1,1.08.27l-.1.65a1.69,1.69,0,0,0-1-.35c-.54,0-.79.29-.79.64s.18.54.9.87c.92.42,1.24.74,1.24,1.46A1.34,1.34,0,0,1,305.72,274.27Zm3.34-.05v-4.76h.65v4.76Zm4.71.09a2.49,2.49,0,1,1,2.2-2.48A2.2,2.2,0,0,1,313.77,274.31Zm0-4.35c-.95,0-1.52.73-1.52,1.88s.59,1.88,1.52,1.88,1.52-.73,1.52-1.88S314.71,270,313.77,270Zm7.28,4.26-2.61-3.7v3.7h-.6v-4.76h.58l2.52,3.57v-3.57h.6v4.76Z" transform="translate(-129.55 -129.97)"/></g><path class="cls-5" d="M129.55,250.14A120.18,120.18,0,1,0,249.73,130,120.17,120.17,0,0,0,129.55,250.14Z" transform="translate(-129.55 -129.97)"/></g></svg>