<svg xmlns="http://www.w3.org/2000/svg" xmlns:xlink="http://www.w3.org/1999/xlink" viewBox="0 0 179.36 79.21"><defs><style>.cls-1{fill:#e3e3e2;}.cls-2{fill:#878993;}.cls-3{fill:url(#radial-gradient);}</style><radialGradient id="radial-gradient" cx="89.86" cy="39.61" r="39.61" gradientUnits="userSpaceOnUse"><stop offset="0" stop-color="#e3e3e2" stop-opacity="0.6"/><stop offset="0.03" stop-color="#e3e3e2" stop-opacity="0.52"/><stop offset="0.09" stop-color="#e3e3e2" stop-opacity="0.38"/><stop offset="0.15" stop-color="#e3e3e2" stop-opacity="0.26"/><stop offset="0.23" stop-color="#e3e3e2" stop-opacity="0.16"/><stop offset="0.32" stop-color="#e3e3e2" stop-opacity="0.09"/><stop offset="0.43" stop-color="#e3e3e2" stop-opacity="0.04"/><stop offset="0.58" stop-color="#e3e3e2" stop-opacity="0.01"/><stop offset="1" stop-color="#e3e3e2" stop-opacity="0"/></radialGradient></defs><title>wl_logo</title><g id="Layer_2" data-name="Layer 2"><g id="footer_2" data-name="footer 2"><g id="W_L_Logo" data-name="W&amp;L Logo"><g id="_Group_" data-name="&lt;Group&gt;"><g id="_Group_2" data-name="&lt;Group&gt;"><path id="_Compound_Path_" data-name="&lt;Compound Path&gt;" class="cls-1" d="M25.36,38a.39.39,0,0,1-.08.24.24.24,0,0,1-.19.11,2.37,2.37,0,0,0-1.37.54,5.06,5.06,0,0,0-1.09,1.75l-5.76,13q-.06.18-.32.18a.35.35,0,0,1-.32-.18L13,46.91,9.3,53.65a.35.35,0,0,1-.32.18.32.32,0,0,1-.33-.18L3,40.68A4.55,4.55,0,0,0,1.88,39a3,3,0,0,0-1.64-.6.22.22,0,0,1-.17-.09A.33.33,0,0,1,0,38.08q0-.31.18-.31.76,0,1.58.07t1.45.07q.69,0,1.63-.07t1.74-.07q.18,0,.18.31t-.11.31a2.22,2.22,0,0,0-1.19.39,1,1,0,0,0-.43.86,1.76,1.76,0,0,0,.18.68L9.81,50.9l2.71-5L10,40.68a6.72,6.72,0,0,0-1.09-1.8,2.19,2.19,0,0,0-1.3-.49.2.2,0,0,1-.15-.09.34.34,0,0,1-.07-.22q0-.31.16-.31A13.06,13.06,0,0,1,9,37.84a11.89,11.89,0,0,0,1.3.07q.68,0,1.43-.07t1.53-.07q.18,0,.18.31t-.11.31q-1.51.1-1.51.86a2.79,2.79,0,0,0,.35,1.06l1.64,3.32,1.63-3a2.47,2.47,0,0,0,.34-1.09q0-1-1.51-1.11-.14,0-.14-.31a.37.37,0,0,1,.07-.21q.07-.1.14-.1.54,0,1.33.07t1.24.07q.35,0,1-.06.86-.08,1.43-.08.14,0,.14.27t-.25.35a2.83,2.83,0,0,0-1.42.49,6.24,6.24,0,0,0-1.34,1.8l-2.17,4,2.93,6,4.34-10.08a2.74,2.74,0,0,0,.23-1q0-1.11-1.51-1.18-.14,0-.14-.31t.2-.31q.55,0,1.31.07t1.17.07A11.46,11.46,0,0,0,24,37.84q.68-.07,1.22-.07Q25.36,37.77,25.36,38Z"/><path id="_Compound_Path_2" data-name="&lt;Compound Path&gt;" class="cls-1" d="M31.51,47.06q0,.32-.41.32H24.91a11.42,11.42,0,0,0-.07,1.26,4.08,4.08,0,0,0,.86,2.79,3.1,3.1,0,0,0,2.45,1A3.43,3.43,0,0,0,29.78,52a3.83,3.83,0,0,0,1.31-1.09l.06,0a.26.26,0,0,1,.2.12.47.47,0,0,1,.1.29q0,.24-.72,1a5.27,5.27,0,0,1-1.57,1.15,4.14,4.14,0,0,1-1.77.39A4.49,4.49,0,0,1,24,52.32a5.16,5.16,0,0,1-1.39-3.66,5.45,5.45,0,0,1,1.36-3.75,4.4,4.4,0,0,1,3.45-1.54,4.08,4.08,0,0,1,2.94,1.15A3.46,3.46,0,0,1,31.51,47.06Zm-2.05-1a1.87,1.87,0,0,0-.58-1.41,2.07,2.07,0,0,0-1.5-.56,1.94,1.94,0,0,0-1.51.73A4,4,0,0,0,25,46.74l3.14-.09a3,3,0,0,0,1-.14A.45.45,0,0,0,29.45,46.07Z"/><path id="_Compound_Path_3" data-name="&lt;Compound Path&gt;" class="cls-1" d="M37.85,53.13c0,.21-.06.32-.18.32q-.46,0-1.19-.06t-1.37-.06q-.54,0-1.34.06t-1.18.06q-.18,0-.18-.32c0-.19.06-.29.18-.31a1.94,1.94,0,0,0,1.25-.46,2.46,2.46,0,0,0,.29-1.45V40.44a2.11,2.11,0,0,0-.23-1.2,1.59,1.59,0,0,0-1-.37q-.18,0-.18-.29t.18-.28a12,12,0,0,0,1.94-.65,2.88,2.88,0,0,0,.95-.58A.33.33,0,0,1,36,37q.32,0,.32.18-.18,2.53-.18,3.93v9.85a2.5,2.5,0,0,0,.28,1.45,1.93,1.93,0,0,0,1.25.46C37.79,52.84,37.85,52.94,37.85,53.13Z"/><path id="_Compound_Path_4" data-name="&lt;Compound Path&gt;" class="cls-1" d="M44.21,53.13c0,.21-.06.32-.18.32q-.46,0-1.19-.06t-1.37-.06q-.54,0-1.34.06t-1.18.06q-.18,0-.18-.32c0-.19.06-.29.18-.31a1.94,1.94,0,0,0,1.25-.46,2.46,2.46,0,0,0,.29-1.45V40.44a2.11,2.11,0,0,0-.23-1.2,1.59,1.59,0,0,0-1-.37q-.18,0-.18-.29t.18-.28a12,12,0,0,0,1.94-.65,2.88,2.88,0,0,0,.95-.58.33.33,0,0,1,.25-.12q.32,0,.32.18-.18,2.53-.18,3.93v9.85a2.5,2.5,0,0,0,.28,1.45,1.93,1.93,0,0,0,1.25.46C44.15,52.84,44.21,52.94,44.21,53.13Z"/></g><path id="_Compound_Path_5" data-name="&lt;Compound Path&gt;" class="cls-2" d="M67.48,44.06q0,.28-.18.3a6.72,6.72,0,0,0-1.92.55A4,4,0,0,0,64.07,46l-2.69,3.35a22.45,22.45,0,0,0,2.44,2.52A2.17,2.17,0,0,0,67,51.68l.06,0a.3.3,0,0,1,.22.13.43.43,0,0,1,.11.28q0,.17-.58.73a3.81,3.81,0,0,1-1.21.82,3.69,3.69,0,0,1-1.41.26,3.52,3.52,0,0,1-1.86-.53A10.91,10.91,0,0,1,60,51.08a7.57,7.57,0,0,1-2.36,2.16,5.79,5.79,0,0,1-2.75.63A3.84,3.84,0,0,1,52,52.66a3.91,3.91,0,0,1-1.2-2.84q0-2.56,4.15-4.48A5.42,5.42,0,0,1,54.06,44a3.27,3.27,0,0,1-.25-1.29,3.54,3.54,0,0,1,1-2.48,3.15,3.15,0,0,1,2.42-1,3.07,3.07,0,0,1,2.08.74,2.23,2.23,0,0,1,.85,1.73,2.33,2.33,0,0,1-.65,1.54,8.42,8.42,0,0,1-2.14,1.6l3.55,4.06a20.82,20.82,0,0,0,1.69-2.3,2.36,2.36,0,0,0,.34-1.12.76.76,0,0,0-.48-.71,4.75,4.75,0,0,0-1.56-.32c-.13,0-.19-.11-.19-.3s.06-.32.18-.32q.49,0,1.42.06,1.17.08,1.92.08T66,43.8q.82-.06,1.32-.06Q67.48,43.74,67.48,44.06Zm-8,6.48-4.06-4.63q-2.29,1.67-2.29,3.54a3,3,0,0,0,.78,2.14,2.83,2.83,0,0,0,2.13.8A4.54,4.54,0,0,0,59.51,50.54Zm-.78-8.9a1.94,1.94,0,0,0-.4-1.29,1.37,1.37,0,0,0-1.11-.48,1.34,1.34,0,0,0-1,.54,2.07,2.07,0,0,0-.46,1.39,3.91,3.91,0,0,0,1.17,2.41A4.66,4.66,0,0,0,58.23,43,2.36,2.36,0,0,0,58.72,41.64Z"/><g id="_Group_3" data-name="&lt;Group&gt;"><path id="_Compound_Path_6" data-name="&lt;Compound Path&gt;" class="cls-1" d="M86.28,49.32a35,35,0,0,0-.83,4.15q-4.32-.13-6.15-.14t-6.07.14q-.18,0-.18-.32c0-.19.06-.29.18-.31a4.32,4.32,0,0,0,1.86-.51,1.63,1.63,0,0,0,.49-1.4V40.31a2.27,2.27,0,0,0-.2-1.11,1.32,1.32,0,0,0-.69-.51,6.57,6.57,0,0,0-1.46-.3q-.18,0-.18-.31t.18-.31q.76,0,1.81.07t1.69.07q.69,0,1.68-.07t1.79-.07c.12,0,.18.1.18.31s-.06.31-.18.31a6.54,6.54,0,0,0-1.44.3,1.3,1.3,0,0,0-.69.5,2.32,2.32,0,0,0-.19,1.12v11a1.17,1.17,0,0,0,1.31,1.33h2.23a3.73,3.73,0,0,0,2.35-.74,7.45,7.45,0,0,0,1.9-2.76c0-.06.1-.09.21-.09a.48.48,0,0,1,.28.09A.25.25,0,0,1,86.28,49.32Z"/><path id="_Compound_Path_7" data-name="&lt;Compound Path&gt;" class="cls-1" d="M92.58,53.15q0,.32-.18.32-.46,0-1.18-.07t-1.36-.07q-.56,0-1.35.07t-1.17.07q-.18,0-.18-.32c0-.19.06-.29.18-.31a2,2,0,0,0,1.24-.46,2.51,2.51,0,0,0,.28-1.44V46.77a2,2,0,0,0-.23-1.18,1.55,1.55,0,0,0-1-.37c-.12,0-.18-.1-.18-.3s.06-.28.18-.28A11.93,11.93,0,0,0,89.54,44a3.06,3.06,0,0,0,.95-.57.32.32,0,0,1,.25-.14q.32,0,.32.18-.18,2.53-.18,3.93v3.54a2.51,2.51,0,0,0,.28,1.44,2,2,0,0,0,1.26.46C92.52,52.86,92.58,53,92.58,53.15ZM91,39.51a1.14,1.14,0,0,1-.34.82,1.16,1.16,0,0,1-1.66,0,1.17,1.17,0,1,1,2-.82Z"/><path id="_Compound_Path_8" data-name="&lt;Compound Path&gt;" class="cls-1" d="M104.32,45.05q0,.61-.29.61l-1.43,0a3.62,3.62,0,0,1,.25,1.31,3.51,3.51,0,0,1-1.19,2.71,4.15,4.15,0,0,1-2.91,1.08H98.3a3.54,3.54,0,0,0-1.43.24q-.53.24-.53.55a.74.74,0,0,0,.44.65,2.54,2.54,0,0,0,1.23.27l2.61,0a4.6,4.6,0,0,1,2.63.71,2.19,2.19,0,0,1,.94,1.88,3.88,3.88,0,0,1-2,3.19,8.09,8.09,0,0,1-4.7,1.37,5,5,0,0,1-3-.87,2.54,2.54,0,0,1-1.22-2.11A2.35,2.35,0,0,1,94.06,55a4.7,4.7,0,0,1,1.82-1.17,2.89,2.89,0,0,1-1.14-.9,1.92,1.92,0,0,1-.44-1.16q0-.41.83-.87a5.47,5.47,0,0,1,1.72-.62A3.82,3.82,0,0,1,95.34,49a3,3,0,0,1-.54-1.76A3.67,3.67,0,0,1,96,44.54a4,4,0,0,1,2.86-1.16,5.1,5.1,0,0,1,1.73.31,4,4,0,0,1,1.4.82l2-.07Q104.32,44.44,104.32,45.05Zm-1.55,10.84a1.23,1.23,0,0,0-.51-1.11,3.38,3.38,0,0,0-1.72-.36l-2.62-.06a3.87,3.87,0,0,1-1.38-.23,2.24,2.24,0,0,0-1.38,2,2.15,2.15,0,0,0,.94,1.81,3.9,3.9,0,0,0,2.38.69,5.62,5.62,0,0,0,3-.79A2.27,2.27,0,0,0,102.78,55.89Zm-2-9a4,4,0,0,0-.44-2.12,1.58,1.58,0,0,0-1.42-.68Q97,44.1,97,47.26a3.85,3.85,0,0,0,.43,2.08,1.6,1.6,0,0,0,1.43.65Q100.73,50,100.73,46.9Z"/><path id="_Compound_Path_9" data-name="&lt;Compound Path&gt;" class="cls-1" d="M117.23,53.15q0,.32-.18.32-.45,0-1.12-.07t-1.27-.07q-.57,0-1.3.07t-1.12.07q-.18,0-.18-.32c0-.19.06-.29.18-.31a1.39,1.39,0,0,0,1-.44,2.9,2.9,0,0,0,.24-1.47V47.17q0-2.44-2.22-2.44a3.16,3.16,0,0,0-2.42,1.13v5.08a2.47,2.47,0,0,0,.29,1.41,1.62,1.62,0,0,0,1.15.5c.12,0,.18.12.18.31s-.06.32-.18.32q-.46,0-1.21-.07t-1.39-.07q-.56,0-1.28.07a10.76,10.76,0,0,1-1.11.07c-.12,0-.18-.11-.18-.32s.06-.29.18-.31a1.86,1.86,0,0,0,1.23-.45,2.52,2.52,0,0,0,.28-1.46V40.47a2.15,2.15,0,0,0-.22-1.2,1.54,1.54,0,0,0-1-.37q-.18,0-.18-.29t.18-.3a7.19,7.19,0,0,0,2.85-1.2.5.5,0,0,1,.28-.14q.31,0,.31.18-.18,1.85-.18,3.93v3.83a4.73,4.73,0,0,1,3.19-1.54,3.52,3.52,0,0,1,2.53.88,3.12,3.12,0,0,1,.92,2.37v4.31a2.46,2.46,0,0,0,.29,1.45,1.94,1.94,0,0,0,1.25.46C117.17,52.86,117.23,53,117.23,53.15Z"/><path id="_Compound_Path_10" data-name="&lt;Compound Path&gt;" class="cls-1" d="M124.74,44.49q0,.61-.29.61L121.08,45v5.42q0,2.12,1.51,2.12a3.37,3.37,0,0,0,1.7-.44.2.2,0,0,1,.16.12.47.47,0,0,1,.07.25q0,.28-.84.76a3.74,3.74,0,0,1-1.89.48,2.73,2.73,0,0,1-2-.78,2.83,2.83,0,0,1-.77-2.07v-.1l0-5.49q0-.32-.27-.32h-.86q-.25,0-.25-.29a.36.36,0,0,1,.2-.33,8.71,8.71,0,0,0,2.72-2.62.37.37,0,0,1,.32-.18c.21,0,.32.06.32.18l-.09,2.16h3.32Q124.74,43.88,124.74,44.49Z"/><path id="_Compound_Path_11" data-name="&lt;Compound Path&gt;" class="cls-1" d="M137.64,53.15q0,.32-.18.32-.45,0-1.12-.07t-1.27-.07q-.57,0-1.3.07t-1.12.07q-.18,0-.18-.32c0-.19.06-.29.18-.31a1.39,1.39,0,0,0,1-.44,2.89,2.89,0,0,0,.24-1.47V47.17q0-2.44-2.22-2.44a3.16,3.16,0,0,0-2.42,1.13v5.08a2.47,2.47,0,0,0,.29,1.41,1.62,1.62,0,0,0,1.15.5c.12,0,.18.12.18.31s-.06.32-.18.32q-.46,0-1.21-.07t-1.39-.07q-.56,0-1.28.07a10.76,10.76,0,0,1-1.11.07c-.12,0-.18-.11-.18-.32s.06-.29.18-.31A1.86,1.86,0,0,0,127,52.4a2.52,2.52,0,0,0,.28-1.46V40.47a2.15,2.15,0,0,0-.22-1.2,1.54,1.54,0,0,0-1-.37q-.18,0-.18-.29t.18-.3a7.19,7.19,0,0,0,2.85-1.2.5.5,0,0,1,.28-.14q.31,0,.31.18-.18,1.85-.18,3.93v3.83a4.73,4.73,0,0,1,3.19-1.54,3.52,3.52,0,0,1,2.53.88,3.12,3.12,0,0,1,.92,2.37v4.31a2.46,2.46,0,0,0,.29,1.45,1.94,1.94,0,0,0,1.25.46C137.58,52.86,137.64,53,137.64,53.15Z"/><path id="_Compound_Path_12" data-name="&lt;Compound Path&gt;" class="cls-1" d="M148.66,48.66a5,5,0,0,1-1.46,3.7,5.68,5.68,0,0,1-7.59,0,5,5,0,0,1-1.47-3.69,5.17,5.17,0,0,1,1.48-3.78,5.52,5.52,0,0,1,7.57,0A5.19,5.19,0,0,1,148.66,48.66Zm-2.28,0a6,6,0,0,0-.8-3.3,2.54,2.54,0,0,0-4.36,0,6,6,0,0,0-.8,3.3,5.84,5.84,0,0,0,.79,3.24,2.6,2.6,0,0,0,4.38,0A5.83,5.83,0,0,0,146.38,48.64Z"/><path id="_Compound_Path_13" data-name="&lt;Compound Path&gt;" class="cls-1" d="M160.67,52.73c0,.16-.06.25-.18.26a6.19,6.19,0,0,0-2.81.78.52.52,0,0,1-.32.12q-.23,0-.23-.18l.09-1.42a4.78,4.78,0,0,1-3,1.51,3,3,0,0,1-3.27-3.25V46.33a2.33,2.33,0,0,0-.26-1.33,1.27,1.27,0,0,0-1-.33h-.33c-.11,0-.17-.1-.17-.29s.06-.36.18-.36a15.38,15.38,0,0,0,3.42-.51q.2,0,.2.28V50a2.87,2.87,0,0,0,.49,1.86,1.88,1.88,0,0,0,1.53.58,2.65,2.65,0,0,0,1.18-.25,3.82,3.82,0,0,0,1.09-.88v-5A2.3,2.3,0,0,0,157,45a1.31,1.31,0,0,0-1.06-.33h-.32c-.11,0-.17-.1-.17-.29s.06-.36.18-.36a15.47,15.47,0,0,0,3.43-.51q.2,0,.2.28V51a1.74,1.74,0,0,0,.22,1,1.7,1.7,0,0,0,1,.38C160.61,52.43,160.67,52.53,160.67,52.73Z"/><path id="_Compound_Path_14" data-name="&lt;Compound Path&gt;" class="cls-1" d="M169,50.56A2.94,2.94,0,0,1,168,52.87a3.86,3.86,0,0,1-2.61.94,9,9,0,0,1-1.67-.24,7.17,7.17,0,0,0-1.15-.17q-.09-.79-.42-2.4,0-.17.33-.17t.33.18a3,3,0,0,0,1,1.46,2.49,2.49,0,0,0,1.58.62,1.79,1.79,0,0,0,1.31-.46,1.74,1.74,0,0,0,.47-1.3,1.32,1.32,0,0,0-.39-.94,6.17,6.17,0,0,0-1.69-1,6.34,6.34,0,0,1-2.25-1.47,2.62,2.62,0,0,1,.48-3.69,3.68,3.68,0,0,1,2.43-.85,9.42,9.42,0,0,1,1.65.2,5.28,5.28,0,0,0,.77.11q0,1.33.15,2.27c0,.11-.11.17-.33.17s-.29-.06-.32-.18a2.38,2.38,0,0,0-.62-1.34,1.58,1.58,0,0,0-1.18-.51q-1.76,0-1.76,1.53a1.37,1.37,0,0,0,.42,1,7.22,7.22,0,0,0,1.81,1.14,7.61,7.61,0,0,1,2.19,1.44A2,2,0,0,1,169,50.56Z"/><path id="_Compound_Path_15" data-name="&lt;Compound Path&gt;" class="cls-1" d="M179.36,47.06q0,.32-.41.32h-6.19a11.57,11.57,0,0,0-.07,1.26,4.08,4.08,0,0,0,.86,2.79,3.1,3.1,0,0,0,2.45,1,3.43,3.43,0,0,0,1.61-.43,3.83,3.83,0,0,0,1.31-1.09l.06,0a.26.26,0,0,1,.2.12.47.47,0,0,1,.1.29q0,.24-.72,1A5.27,5.27,0,0,1,177,53.41a4.14,4.14,0,0,1-1.77.39,4.49,4.49,0,0,1-3.42-1.49,5.16,5.16,0,0,1-1.39-3.66,5.45,5.45,0,0,1,1.36-3.75,4.41,4.41,0,0,1,3.45-1.54,4.08,4.08,0,0,1,2.94,1.15A3.46,3.46,0,0,1,179.36,47.06Zm-2.05-1a1.87,1.87,0,0,0-.58-1.41,2.07,2.07,0,0,0-1.5-.56,2,2,0,0,0-1.51.73,4,4,0,0,0-.86,1.91l3.14-.09a3,3,0,0,0,1-.14A.45.45,0,0,0,177.31,46.07Z"/></g></g><path id="_Path_" data-name="&lt;Path&gt;" class="cls-3" d="M50.26,39.61A39.61,39.61,0,1,0,89.86,0,39.61,39.61,0,0,0,50.26,39.61Z"/></g><path class="cls-2" d="M4.23,68.66a3.59,3.59,0,0,1-1.66-.39l.12-.82A2.91,2.91,0,0,0,4.24,68c.62,0,1.06-.33,1.06-.9s-.24-.77-1.13-1.17c-1.12-.51-1.54-.88-1.54-1.73a1.6,1.6,0,0,1,1.8-1.56,2.62,2.62,0,0,1,1.35.34l-.13.81a2.1,2.1,0,0,0-1.25-.44c-.68,0-1,.36-1,.8s.22.67,1.13,1.08C5.7,65.7,6.1,66.1,6.1,67A1.67,1.67,0,0,1,4.23,68.66Z"/><path class="cls-2" d="M10.57,63.4v5.19H9.76V63.4H7.87v-.74h4.52l.12.74Z"/><path class="cls-2" d="M17.8,68.65,16,66.09h-.61v2.5h-.81V62.66h1.62c1.21,0,2,.6,2,1.68A1.6,1.6,0,0,1,16.86,66l1.76,2.48Zm-1.65-5.27h-.77v2h.69c.78,0,1.28-.35,1.28-1S16.94,63.37,16.15,63.37Z"/><path class="cls-2" d="M22.69,62.64h.81l2.29,5.84-.78.17-.7-1.84H21.85l-.67,1.78h-.82Zm-.56,3.46H24l-1-2.52Z"/><path class="cls-2" d="M29.44,63.4v5.19h-.81V63.4H26.75v-.74h4.52l.12.74Z"/><path class="cls-2" d="M33.44,68.59V62.66h3.2v.74H34.25v1.72h1.85l.12.74h-2v2h2.47v.74Z"/><path class="cls-2" d="M41.35,68.7a3.08,3.08,0,0,1-.07-6.15,3.08,3.08,0,0,1,1.8.51l-.13.82a2.66,2.66,0,0,0-1.68-.59c-1.3,0-2,.91-2,2.34S40,68,41.35,68a2.3,2.3,0,0,0,1.2-.29V66.09H41.19l-.11-.74h2.28v2.78A3.77,3.77,0,0,1,41.35,68.7Z"/><path class="cls-2" d="M45.88,68.59V62.66h.81v5.93Z"/><path class="cls-2" d="M51.77,68.7C50.1,68.7,49,67.46,49,65.63a2.77,2.77,0,0,1,2.76-3.08,2.85,2.85,0,0,1,1.68.49l-.12.82a2.54,2.54,0,0,0-1.57-.58c-1.2,0-1.92.91-1.92,2.34S50.58,68,51.78,68a2.82,2.82,0,0,0,1.67-.59l.12.77A3.13,3.13,0,0,1,51.77,68.7Z"/><path class="cls-2" d="M61.62,68.59H59.93V62.66h1.72a2.8,2.8,0,0,1,3.12,3A2.84,2.84,0,0,1,61.62,68.59Zm.06-5.2h-.94v4.47h.91a2,2,0,0,0,2.29-2.23A2,2,0,0,0,61.68,63.39Z"/><path class="cls-2" d="M67.08,68.59V62.66h3.2v.74H67.88v1.72h1.85l.12.74h-2v2h2.47v.74Z"/><path class="cls-2" d="M73.91,66.18h-.63v2.41h-.81V62.66h1.57c1.26,0,2,.61,2,1.71S75.2,66.18,73.91,66.18ZM74,63.37h-.72v2.1H74c.81,0,1.29-.33,1.29-1.07S74.82,63.37,74,63.37Z"/><path class="cls-2" d="M80.54,63.4v5.19h-.81V63.4H77.84v-.74h4.52l.12.74Z"/><path class="cls-2" d="M88.35,68.59V65.86h-3v2.73h-.81V62.66h.81v2.46h3V62.66h.81v5.93Z"/><path class="cls-2" d="M97.6,66v1.71h-.67V66H95.27v-.63h1.66V63.66h.67v1.71h1.66V66Z"/><path class="cls-2" d="M107.06,68.59h-1.68V62.66h1.72a2.8,2.8,0,0,1,3.12,3A2.84,2.84,0,0,1,107.06,68.59Zm.06-5.2h-.94v4.47h.91a2,2,0,0,0,2.29-2.23A2,2,0,0,0,107.13,63.39Z"/><path class="cls-2" d="M112.56,68.59V62.66h.81v5.93Z"/><path class="cls-2" d="M118.6,68.7a3.08,3.08,0,0,1-.07-6.15,3.08,3.08,0,0,1,1.8.51l-.13.82a2.66,2.66,0,0,0-1.68-.59c-1.3,0-2,.91-2,2.34s.7,2.33,2.05,2.33a2.3,2.3,0,0,0,1.2-.29V66.09h-1.36l-.11-.74h2.28v2.78A3.77,3.77,0,0,1,118.6,68.7Z"/><path class="cls-2" d="M123.13,68.59V62.66h.81v5.93Z"/><path class="cls-2" d="M128.73,63.4v5.19h-.81V63.4H126v-.74h4.52l.12.74Z"/><path class="cls-2" d="M133.9,62.64h.81L137,68.48l-.78.17-.7-1.84h-2.44l-.67,1.78h-.82Zm-.56,3.46h1.9l-1-2.52Z"/><path class="cls-2" d="M139.06,68.59V62.66h.81v5.19H142l.11.74Z"/><path class="cls-2" d="M150.4,68.61h-.72l-2.29-5.84.81-.17L150,67.53l1.81-4.87h.85Z"/><path class="cls-2" d="M154.81,68.59V62.66h.81v5.93Z"/><path class="cls-2" d="M159.6,68.66a3.59,3.59,0,0,1-1.66-.39l.12-.82a2.91,2.91,0,0,0,1.55.51c.62,0,1.06-.33,1.06-.9s-.24-.77-1.13-1.17c-1.12-.51-1.54-.88-1.54-1.73a1.6,1.6,0,0,1,1.8-1.56,2.61,2.61,0,0,1,1.35.34l-.13.81a2.1,2.1,0,0,0-1.25-.44c-.68,0-1,.36-1,.8s.22.67,1.13,1.08c1.15.52,1.55.92,1.55,1.81A1.68,1.68,0,0,1,159.6,68.66Z"/><path class="cls-2" d="M163.76,68.59V62.66h.81v5.93Z"/><path class="cls-2" d="M169.63,68.7c-1.67,0-2.72-1.24-2.72-3.07s1.07-3.08,2.74-3.08,2.72,1.24,2.72,3.07S171.31,68.7,169.63,68.7Zm0-5.41c-1.18,0-1.9.91-1.9,2.34s.73,2.34,1.9,2.34,1.9-.91,1.9-2.34S170.81,63.29,169.64,63.29Z"/><path class="cls-2" d="M178.7,68.59,175.44,64v4.61h-.75V62.66h.72l3.14,4.44V62.66h.75v5.93Z"/></g></g></svg>