<svg xmlns="http://www.w3.org/2000/svg" viewBox="0 0 152 36"><defs><style>.cls-1{fill:#a5b3c9;}.cls-2,.cls-3{fill:#fff;}.cls-2{stroke:#fff;stroke-miterlimit:10;stroke-width:0.25px;}</style></defs><title>Artboard 2</title><g id="bg"><path class="cls-1" d="M57.06,21.84,58.18,23a7.58,7.58,0,0,1-5.73,2.51,7.16,7.16,0,0,1-7.27-7.41h0a7.25,7.25,0,0,1,7.27-7.41A7.64,7.64,0,0,1,58,12.9l-1.12,1.26a6.23,6.23,0,0,0-4.61-2.1,5.67,5.67,0,0,0-5.59,5.87h0a5.71,5.71,0,0,0,5.59,6A6.26,6.26,0,0,0,57.06,21.84Zm18-3.91h0a7.34,7.34,0,1,1-14.67.14h0a7.28,7.28,0,0,1,7.41-7.41A7,7,0,0,1,75.09,17.93Zm-1.68,0a5.82,5.82,0,0,0-5.73-6,5.58,5.58,0,0,0-5.59,5.87h0a5.82,5.82,0,0,0,5.73,6c3.35.14,5.59-2.51,5.59-5.87Zm12.71.7L80.81,10.8H79.14V25.2h1.68V13.6l5.31,7.68h.14l5.31-7.68V25.34h1.68V10.8H91.57Zm22.5-3.21h0c0,3.21-2.65,4.75-5.73,4.75H99.4v5H97.72V10.8h5.45C106.38,10.8,108.62,12.48,108.62,15.42Zm-1.68,0c0-2.1-1.54-3.07-3.91-3.07H99.4v6.29h3.49c2.51,0,4.05-1.26,4.05-3.21Zm10.62-4.75,6.57,14.53h-1.82l-1.68-3.77h-7.68l-1.68,3.77H109.6l6.57-14.53Zm2.51,9.22-3.21-7.41-3.35,7.41Zm12.71-2.65c-3.21-.7-3.91-1.4-3.91-2.79h0c0-1.26,1.26-2.38,3.07-2.38a6.25,6.25,0,0,1,4.19,1.54l1-1.26a7.63,7.63,0,0,0-5-1.82c-2.79,0-4.75,1.68-4.75,3.91h0c0,2.38,1.54,3.49,4.89,4.19,3.07.7,3.77,1.4,3.77,2.79h0c0,1.4-1.26,2.51-3.21,2.51a6.55,6.55,0,0,1-4.89-2.1l-1,1.26a7.27,7.27,0,0,0,5.59,2.24c2.79,0,4.89-1.54,4.89-4.05h0C137.4,19,136,17.93,132.79,17.23Zm13.69,0c-3.21-.7-3.91-1.4-3.91-2.79h0c0-1.26,1.26-2.38,3.07-2.38a6.25,6.25,0,0,1,4.19,1.54l.84-1.26a7.63,7.63,0,0,0-5-1.82c-2.79,0-4.75,1.68-4.75,3.91h0c0,2.38,1.54,3.49,4.89,4.19,3.07.7,3.77,1.4,3.77,2.79h0c0,1.4-1.26,2.51-3.21,2.51a6.55,6.55,0,0,1-4.89-2.1l-1,1.26a8.48,8.48,0,0,0,5.87,2.38c2.79,0,4.89-1.54,4.89-4.05h0C151.23,19,149.7,17.93,146.48,17.23Z"/><path class="cls-2" d="M18.27,35.5A17.5,17.5,0,1,1,35.77,18,17.52,17.52,0,0,1,18.27,35.5Zm0-34.41A16.91,16.91,0,1,0,35.17,18,16.93,16.93,0,0,0,18.27,1.09Z"/><path class="cls-3" d="M21.1,29.06l-3.62-8.92L7.59,18.63l17.15-8.32ZM9.57,18.33,17.9,19.6l3,7.39,3-15.63Z"/><path class="cls-3" d="M21,27a1.24,1.24,0,1,0,.76.26A1.24,1.24,0,0,0,21,27Z"/><path class="cls-3" d="M24.62,9.24a1.24,1.24,0,1,0,.76.26A1.24,1.24,0,0,0,24.62,9.24Z"/><path class="cls-3" d="M8.26,17.22a1.24,1.24,0,1,0,.76.26A1.24,1.24,0,0,0,8.26,17.22Z"/></g><g id="nav_1" data-name="nav 1"><path class="cls-1" d="M57.06,21.84,58.18,23a7.58,7.58,0,0,1-5.73,2.51,7.16,7.16,0,0,1-7.27-7.41h0a7.25,7.25,0,0,1,7.27-7.41A7.64,7.64,0,0,1,58,12.9l-1.12,1.26a6.23,6.23,0,0,0-4.61-2.1,5.67,5.67,0,0,0-5.59,5.87h0a5.71,5.71,0,0,0,5.59,6A6.26,6.26,0,0,0,57.06,21.84Zm18-3.91h0a7.34,7.34,0,1,1-14.67.14h0a7.28,7.28,0,0,1,7.41-7.41A7,7,0,0,1,75.09,17.93Zm-1.68,0a5.82,5.82,0,0,0-5.73-6,5.58,5.58,0,0,0-5.59,5.87h0a5.82,5.82,0,0,0,5.73,6c3.35.14,5.59-2.51,5.59-5.87Zm12.71.7L80.81,10.8H79.14V25.2h1.68V13.6l5.31,7.68h.14l5.31-7.68V25.34h1.68V10.8H91.57Zm22.5-3.21h0c0,3.21-2.65,4.75-5.73,4.75H99.4v5H97.72V10.8h5.45C106.38,10.8,108.62,12.48,108.62,15.42Zm-1.68,0c0-2.1-1.54-3.07-3.91-3.07H99.4v6.29h3.49c2.51,0,4.05-1.26,4.05-3.21Zm10.62-4.75,6.57,14.53h-1.82l-1.68-3.77h-7.68l-1.68,3.77H109.6l6.57-14.53Zm2.51,9.22-3.21-7.41-3.35,7.41Zm12.71-2.65c-3.21-.7-3.91-1.4-3.91-2.79h0c0-1.26,1.26-2.38,3.07-2.38a6.25,6.25,0,0,1,4.19,1.54l1-1.26a7.63,7.63,0,0,0-5-1.82c-2.79,0-4.75,1.68-4.75,3.91h0c0,2.38,1.54,3.49,4.89,4.19,3.07.7,3.77,1.4,3.77,2.79h0c0,1.4-1.26,2.51-3.21,2.51a6.55,6.55,0,0,1-4.89-2.1l-1,1.26a7.27,7.27,0,0,0,5.59,2.24c2.79,0,4.89-1.54,4.89-4.05h0C137.4,19,136,17.93,132.79,17.23Zm13.69,0c-3.21-.7-3.91-1.4-3.91-2.79h0c0-1.26,1.26-2.38,3.07-2.38a6.25,6.25,0,0,1,4.19,1.54l.84-1.26a7.63,7.63,0,0,0-5-1.82c-2.79,0-4.75,1.68-4.75,3.91h0c0,2.38,1.54,3.49,4.89,4.19,3.07.7,3.77,1.4,3.77,2.79h0c0,1.4-1.26,2.51-3.21,2.51a6.55,6.55,0,0,1-4.89-2.1l-1,1.26a8.48,8.48,0,0,0,5.87,2.38c2.79,0,4.89-1.54,4.89-4.05h0C151.23,19,149.7,17.93,146.48,17.23Z"/><path class="cls-2" d="M18.27,35.5A17.5,17.5,0,1,1,35.77,18,17.52,17.52,0,0,1,18.27,35.5Zm0-34.41A16.91,16.91,0,1,0,35.17,18,16.93,16.93,0,0,0,18.27,1.09Z"/><path class="cls-3" d="M21.1,29.06l-3.62-8.92L7.59,18.63l17.15-8.32ZM9.57,18.33,17.9,19.6l3,7.39,3-15.63Z"/><path class="cls-3" d="M21,27a1.24,1.24,0,1,0,.76.26A1.24,1.24,0,0,0,21,27Z"/><path class="cls-3" d="M24.62,9.24a1.24,1.24,0,1,0,.76.26A1.24,1.24,0,0,0,24.62,9.24Z"/><path class="cls-3" d="M8.26,17.22a1.24,1.24,0,1,0,.76.26A1.24,1.24,0,0,0,8.26,17.22Z"/></g></svg>