<svg xmlns="http://www.w3.org/2000/svg" viewBox="0 0 217.25 37.03"><defs><style>.cls-1,.cls-3,.cls-4{fill:#fff;}.cls-1,.cls-2{opacity:0.9;}.cls-3{stroke:#fff;stroke-miterlimit:10;stroke-width:0.26px;}.cls-5{fill:#878993;}</style></defs><title>compass_logo_footer</title><g id="Layer_2" data-name="Layer 2"><g id="footer_2" data-name="footer 2"><path class="cls-1" d="M54.14,18.4l1,1A6.8,6.8,0,0,1,50,21.66,6.43,6.43,0,0,1,43.48,15h0A6.51,6.51,0,0,1,50,8.36a6.86,6.86,0,0,1,5,2L54,11.5a5.59,5.59,0,0,0-4.14-1.88,5.09,5.09,0,0,0-5,5.27h0a5.12,5.12,0,0,0,5,5.39A5.62,5.62,0,0,0,54.14,18.4Zm16.18-3.51h0A6.59,6.59,0,1,1,57.15,15h0A6.53,6.53,0,0,1,63.8,8.36,6.33,6.33,0,0,1,70.33,14.88Zm-1.51,0a5.22,5.22,0,0,0-5.14-5.39,5,5,0,0,0-5,5.27h0a5.22,5.22,0,0,0,5.14,5.39c3,.13,5-2.26,5-5.27Zm11.42.63-4.77-7H74V21.41h1.51V11l4.77,6.9h.13L85.13,11V21.53h1.51v-13H85.13Zm20.2-2.89h0c0,2.89-2.38,4.27-5.14,4.27H92.15v4.52H90.65V8.49h4.89C98.43,8.49,100.43,10,100.43,12.62Zm-1.51,0c0-1.88-1.38-2.76-3.51-2.76H92.15v5.65h3.14c2.26,0,3.64-1.13,3.64-2.89Zm9.53-4.27,5.9,13h-1.63L111.22,18h-6.9l-1.51,3.39h-1.51l5.9-13Zm2.26,8.28L107.84,10l-3,6.65Zm11.42-2.38c-2.89-.63-3.51-1.25-3.51-2.51h0c0-1.13,1.13-2.13,2.76-2.13A5.61,5.61,0,0,1,125.15,11L126,9.87a6.85,6.85,0,0,0-4.52-1.63c-2.51,0-4.27,1.51-4.27,3.51h0c0,2.13,1.38,3.14,4.39,3.76,2.76.63,3.39,1.25,3.39,2.51h0c0,1.25-1.13,2.26-2.89,2.26a5.88,5.88,0,0,1-4.39-1.88l-.88,1.13a6.53,6.53,0,0,0,5,2c2.51,0,4.39-1.38,4.39-3.64h0C126.28,15.89,125,14.88,122.14,14.26Zm12.29,0c-2.89-.63-3.51-1.25-3.51-2.51h0c0-1.13,1.13-2.13,2.76-2.13A5.61,5.61,0,0,1,137.44,11l.75-1.13a6.85,6.85,0,0,0-4.52-1.63c-2.51,0-4.27,1.51-4.27,3.51h0c0,2.13,1.38,3.14,4.39,3.76,2.76.63,3.39,1.25,3.39,2.51h0c0,1.25-1.13,2.26-2.89,2.26a5.88,5.88,0,0,1-4.39-1.88L129,19.52a7.61,7.61,0,0,0,5.27,2.13c2.51,0,4.39-1.38,4.39-3.64h0C138.69,15.89,137.31,14.88,134.43,14.26Z"/><g class="cls-2"><path class="cls-3" d="M18.51,36.89A18.38,18.38,0,1,1,36.89,18.51,18.4,18.4,0,0,1,18.51,36.89Zm0-36.14A17.76,17.76,0,1,0,36.27,18.51,17.78,17.78,0,0,0,18.51.75Z"/><path class="cls-4" d="M21.49,30.13l-3.8-9.37L7.3,19.17l18-8.74ZM9.37,18.86l8.76,1.34L21.28,28l3.19-16.42Z"/><path class="cls-4" d="M21.36,28a1.31,1.31,0,1,0,.8.27A1.3,1.3,0,0,0,21.36,28Z"/><path class="cls-4" d="M25.19,9.31a1.31,1.31,0,1,0,.8.27A1.3,1.3,0,0,0,25.19,9.31Z"/><path class="cls-4" d="M8,17.69a1.31,1.31,0,1,0,.8.27A1.3,1.3,0,0,0,8,17.69Z"/></g><path class="cls-5" d="M45.12,29.57A2.89,2.89,0,0,1,46,29a2.79,2.79,0,0,1,1.08-.2,1.93,1.93,0,0,1,.75.14,1.56,1.56,0,0,1,.56.39,1.65,1.65,0,0,1,.34.6,2.53,2.53,0,0,1,.11.78v3.24h-.4a.39.39,0,0,1-.2,0,.29.29,0,0,1-.11-.17l-.1-.48a5,5,0,0,1-.39.33,2.22,2.22,0,0,1-.4.24,2.16,2.16,0,0,1-.45.15,2.44,2.44,0,0,1-.53.05,1.81,1.81,0,0,1-.56-.08,1.28,1.28,0,0,1-.45-.25,1.17,1.17,0,0,1-.31-.42,1.45,1.45,0,0,1-.11-.6,1.11,1.11,0,0,1,.17-.58,1.45,1.45,0,0,1,.53-.49,3.5,3.5,0,0,1,1-.35A7.36,7.36,0,0,1,48,31.07v-.39a1.35,1.35,0,0,0-.26-.89.92.92,0,0,0-.74-.3,1.59,1.59,0,0,0-.55.08,2,2,0,0,0-.38.18l-.28.19a.4.4,0,0,1-.23.08.26.26,0,0,1-.15,0,.45.45,0,0,1-.11-.12ZM48,31.64a7.46,7.46,0,0,0-1,.1,3,3,0,0,0-.71.2,1,1,0,0,0-.39.29.63.63,0,0,0-.12.38.84.84,0,0,0,.06.35.64.64,0,0,0,.18.24.72.72,0,0,0,.27.13,1.22,1.22,0,0,0,.33,0,1.78,1.78,0,0,0,.43,0,1.58,1.58,0,0,0,.37-.14,2.05,2.05,0,0,0,.33-.21,2.77,2.77,0,0,0,.31-.29Z"/><path class="cls-5" d="M57.47,26.55v7.37h-.53a.23.23,0,0,1-.24-.19l-.08-.61a2.77,2.77,0,0,1-.74.63,1.88,1.88,0,0,1-1,.24,1.83,1.83,0,0,1-.79-.17,1.63,1.63,0,0,1-.6-.49,2.34,2.34,0,0,1-.39-.81A4.18,4.18,0,0,1,53,31.4a3.49,3.49,0,0,1,.15-1,2.58,2.58,0,0,1,.43-.84,2,2,0,0,1,.69-.56,2,2,0,0,1,.92-.2,1.86,1.86,0,0,1,.8.16,1.94,1.94,0,0,1,.59.44v-2.8Zm-.89,3.5a1.44,1.44,0,0,0-.54-.47,1.55,1.55,0,0,0-.65-.13,1.28,1.28,0,0,0-1.08.5,2.36,2.36,0,0,0-.38,1.44,3.66,3.66,0,0,0,.08.85,1.63,1.63,0,0,0,.25.58,1,1,0,0,0,.4.33,1.36,1.36,0,0,0,.54.1,1.44,1.44,0,0,0,.77-.2,2.19,2.19,0,0,0,.6-.56Z"/><path class="cls-5" d="M60.29,27.26a.57.57,0,0,1-.05.24.71.71,0,0,1-.14.2.64.64,0,0,1-.21.14.63.63,0,0,1-.25,0,.59.59,0,0,1-.24,0,.62.62,0,0,1-.2-.14.68.68,0,0,1-.13-.2.58.58,0,0,1-.05-.24.62.62,0,0,1,.05-.25.65.65,0,0,1,.13-.21.62.62,0,0,1,.2-.14.59.59,0,0,1,.24,0,.63.63,0,0,1,.25,0,.64.64,0,0,1,.21.14.67.67,0,0,1,.14.21A.6.6,0,0,1,60.29,27.26Zm-.19,1.59v5.07h-.89V28.85Z"/><path class="cls-5" d="M66.08,29.05v.33c0,.11-.07.18-.21.21l-.58.08a1.65,1.65,0,0,1,0,1.4,1.55,1.55,0,0,1-.39.52,1.75,1.75,0,0,1-.6.33,2.44,2.44,0,0,1-.76.12,2.52,2.52,0,0,1-.67-.09.91.91,0,0,0-.24.21.37.37,0,0,0-.08.23.3.3,0,0,0,.15.27,1.07,1.07,0,0,0,.39.13,4.28,4.28,0,0,0,.55,0l.63,0a6,6,0,0,1,.63.08,1.89,1.89,0,0,1,.55.18,1,1,0,0,1,.39.34A1,1,0,0,1,66,34a1.32,1.32,0,0,1-.16.63,1.72,1.72,0,0,1-.47.54,2.43,2.43,0,0,1-.75.38,3.25,3.25,0,0,1-1,.14,3.81,3.81,0,0,1-1-.11,2.29,2.29,0,0,1-.69-.29,1.28,1.28,0,0,1-.41-.43,1,1,0,0,1-.14-.51.91.91,0,0,1,.23-.63,1.63,1.63,0,0,1,.65-.42.92.92,0,0,1-.36-.27.71.71,0,0,1-.13-.45.7.7,0,0,1,0-.23,1,1,0,0,1,.12-.24,1.28,1.28,0,0,1,.2-.22,1.35,1.35,0,0,1,.28-.18,1.56,1.56,0,0,1-.59-.56,1.53,1.53,0,0,1-.21-.81,1.56,1.56,0,0,1,.14-.67,1.49,1.49,0,0,1,.4-.52,1.81,1.81,0,0,1,.61-.33,2.47,2.47,0,0,1,.77-.12,2.51,2.51,0,0,1,.61.07,2,2,0,0,1,.52.21Zm-.9,5.14a.43.43,0,0,0-.1-.3.71.71,0,0,0-.28-.18,1.85,1.85,0,0,0-.41-.09l-.5,0-.53,0-.52,0a1.38,1.38,0,0,0-.46.33.67.67,0,0,0-.18.46.61.61,0,0,0,.09.32.76.76,0,0,0,.27.25A1.59,1.59,0,0,0,63,35a3.27,3.27,0,0,0,1.29,0,1.61,1.61,0,0,0,.48-.18.91.91,0,0,0,.3-.29A.67.67,0,0,0,65.18,34.19Zm-1.6-2.75a1.38,1.38,0,0,0,.47-.07,1,1,0,0,0,.35-.21.87.87,0,0,0,.21-.32,1.17,1.17,0,0,0,.07-.41,1,1,0,0,0-.28-.74,1.36,1.36,0,0,0-1.64,0,1,1,0,0,0-.28.74,1.13,1.13,0,0,0,.07.41.9.9,0,0,0,.21.32,1,1,0,0,0,.35.21A1.38,1.38,0,0,0,63.57,31.44Z"/><path class="cls-5" d="M68.41,27.26a.57.57,0,0,1-.05.24.71.71,0,0,1-.14.2.64.64,0,0,1-.21.14.63.63,0,0,1-.25,0,.59.59,0,0,1-.24,0,.62.62,0,0,1-.2-.14.68.68,0,0,1-.13-.2.58.58,0,0,1-.05-.24.62.62,0,0,1,.05-.25.65.65,0,0,1,.13-.21.62.62,0,0,1,.2-.14.59.59,0,0,1,.24,0,.63.63,0,0,1,.25,0,.64.64,0,0,1,.21.14.67.67,0,0,1,.14.21A.6.6,0,0,1,68.41,27.26Zm-.19,1.59v5.07h-.89V28.85Z"/><path class="cls-5" d="M71.51,34a1.22,1.22,0,0,1-.92-.33,1.34,1.34,0,0,1-.32-1V29.6h-.61a.2.2,0,0,1-.13,0,.18.18,0,0,1-.06-.15V29l.83-.11.21-1.56a.22.22,0,0,1,.07-.12.2.2,0,0,1,.14,0h.45V29h1.47v.64H71.15v3a.64.64,0,0,0,.16.47.54.54,0,0,0,.4.16.72.72,0,0,0,.24,0l.18-.08.13-.08a.17.17,0,0,1,.09,0,.15.15,0,0,1,.13.08l.26.43a1.66,1.66,0,0,1-.55.34A1.88,1.88,0,0,1,71.51,34Z"/><path class="cls-5" d="M73.87,29.57a2.89,2.89,0,0,1,.9-.6,2.79,2.79,0,0,1,1.08-.2,1.93,1.93,0,0,1,.75.14,1.56,1.56,0,0,1,.56.39,1.65,1.65,0,0,1,.34.6,2.53,2.53,0,0,1,.11.78v3.24h-.4a.39.39,0,0,1-.2,0,.29.29,0,0,1-.11-.17l-.1-.48a5,5,0,0,1-.39.33,2.22,2.22,0,0,1-.4.24,2.16,2.16,0,0,1-.45.15A2.44,2.44,0,0,1,75,34a1.81,1.81,0,0,1-.56-.08,1.28,1.28,0,0,1-.45-.25,1.17,1.17,0,0,1-.31-.42,1.45,1.45,0,0,1-.11-.6,1.11,1.11,0,0,1,.17-.58,1.45,1.45,0,0,1,.53-.49,3.5,3.5,0,0,1,1-.35,7.36,7.36,0,0,1,1.46-.16v-.39a1.35,1.35,0,0,0-.26-.89.92.92,0,0,0-.74-.3,1.59,1.59,0,0,0-.55.08,2,2,0,0,0-.38.18l-.28.19a.4.4,0,0,1-.23.08.26.26,0,0,1-.15,0,.45.45,0,0,1-.11-.12Zm2.88,2.07a7.46,7.46,0,0,0-1,.1,3,3,0,0,0-.71.2,1,1,0,0,0-.39.29.63.63,0,0,0-.12.38.84.84,0,0,0,.06.35.64.64,0,0,0,.18.24.72.72,0,0,0,.27.13,1.22,1.22,0,0,0,.33,0,1.78,1.78,0,0,0,.43,0,1.58,1.58,0,0,0,.37-.14,2.05,2.05,0,0,0,.33-.21,2.77,2.77,0,0,0,.31-.29Z"/><path class="cls-5" d="M80.19,26.55v7.37H79.3V26.55Z"/><path class="cls-5" d="M85.54,29.64a2.62,2.62,0,0,1,.74-.63,1.9,1.9,0,0,1,1-.24,1.83,1.83,0,0,1,.79.17,1.63,1.63,0,0,1,.6.49,2.37,2.37,0,0,1,.39.81,4.18,4.18,0,0,1,.13,1.12,3.49,3.49,0,0,1-.15,1,2.52,2.52,0,0,1-.43.83A2,2,0,0,1,87,34a1.84,1.84,0,0,1-.8-.16,1.87,1.87,0,0,1-.59-.44v2.24h-.9V28.85h.54a.22.22,0,0,1,.23.19Zm0,3.06a1.44,1.44,0,0,0,.53.47,1.53,1.53,0,0,0,.65.13,1.28,1.28,0,0,0,1.09-.5,2.36,2.36,0,0,0,.38-1.44,3.6,3.6,0,0,0-.09-.85,1.66,1.66,0,0,0-.25-.58,1,1,0,0,0-.41-.33,1.34,1.34,0,0,0-.54-.11,1.44,1.44,0,0,0-.76.2,2.21,2.21,0,0,0-.6.57Z"/><path class="cls-5" d="M91.47,29.87a2.28,2.28,0,0,1,.59-.81,1.29,1.29,0,0,1,.85-.29,1.33,1.33,0,0,1,.31,0,.81.81,0,0,1,.26.11l-.06.66a.14.14,0,0,1-.15.13l-.21,0a1.38,1.38,0,0,0-.31,0,1.21,1.21,0,0,0-.43.07,1,1,0,0,0-.33.21,1.46,1.46,0,0,0-.27.34,3,3,0,0,0-.21.46v3.2h-.9V28.85h.51a.28.28,0,0,1,.2.06.34.34,0,0,1,.08.19Z"/><path class="cls-5" d="M96.68,28.77a2.57,2.57,0,0,1,1,.19,2.14,2.14,0,0,1,.76.52,2.3,2.3,0,0,1,.48.82,3.56,3.56,0,0,1,0,2.16,2.32,2.32,0,0,1-.48.82,2.12,2.12,0,0,1-.76.52,2.62,2.62,0,0,1-1,.18,2.66,2.66,0,0,1-1-.18,2.12,2.12,0,0,1-.76-.52,2.32,2.32,0,0,1-.48-.82,3.56,3.56,0,0,1,0-2.16,2.3,2.3,0,0,1,.48-.82,2.13,2.13,0,0,1,.76-.52A2.6,2.6,0,0,1,96.68,28.77Zm0,4.52a1.3,1.3,0,0,0,1.12-.5,2.86,2.86,0,0,0,0-2.81,1.3,1.3,0,0,0-1.12-.5,1.56,1.56,0,0,0-.66.13,1.23,1.23,0,0,0-.47.38,1.66,1.66,0,0,0-.28.6,3.21,3.21,0,0,0-.09.81,2.31,2.31,0,0,0,.37,1.4A1.32,1.32,0,0,0,96.68,33.29Z"/><path class="cls-5" d="M104.75,26.55v7.37h-.53a.23.23,0,0,1-.24-.19l-.08-.61a2.77,2.77,0,0,1-.74.63,1.88,1.88,0,0,1-1,.24,1.83,1.83,0,0,1-.79-.17,1.63,1.63,0,0,1-.6-.49,2.34,2.34,0,0,1-.39-.81,4.18,4.18,0,0,1-.13-1.12,3.49,3.49,0,0,1,.15-1,2.58,2.58,0,0,1,.43-.84,2,2,0,0,1,.69-.56,2,2,0,0,1,.92-.2,1.86,1.86,0,0,1,.8.16,1.94,1.94,0,0,1,.59.44v-2.8Zm-.89,3.5a1.44,1.44,0,0,0-.54-.47,1.55,1.55,0,0,0-.65-.13,1.28,1.28,0,0,0-1.08.5,2.36,2.36,0,0,0-.38,1.44,3.66,3.66,0,0,0,.08.85,1.63,1.63,0,0,0,.25.58,1,1,0,0,0,.4.33,1.36,1.36,0,0,0,.54.1,1.44,1.44,0,0,0,.77-.2,2.19,2.19,0,0,0,.6-.56Z"/><path class="cls-5" d="M110.64,28.85v5.07h-.53a.23.23,0,0,1-.24-.19l-.07-.54a2.79,2.79,0,0,1-.74.59,1.94,1.94,0,0,1-.94.22,1.82,1.82,0,0,1-.73-.14,1.45,1.45,0,0,1-.53-.39,1.64,1.64,0,0,1-.32-.6,2.7,2.7,0,0,1-.11-.79V28.85h.89v3.23a1.35,1.35,0,0,0,.26.89,1,1,0,0,0,.8.32,1.51,1.51,0,0,0,.74-.19,2.35,2.35,0,0,0,.63-.52V28.85Z"/><path class="cls-5" d="M115.89,29.75l-.08.08a.18.18,0,0,1-.11,0,.3.3,0,0,1-.17-.06l-.22-.14a1.83,1.83,0,0,0-.32-.14,1.75,1.75,0,0,0-1.13.07,1.27,1.27,0,0,0-.48.38,1.74,1.74,0,0,0-.29.61,3,3,0,0,0-.1.79,2.91,2.91,0,0,0,.1.82,1.73,1.73,0,0,0,.3.6,1.28,1.28,0,0,0,.46.37,1.43,1.43,0,0,0,.61.13,1.59,1.59,0,0,0,.54-.08,1.57,1.57,0,0,0,.35-.17l.23-.17a.29.29,0,0,1,.18-.08.2.2,0,0,1,.17.08l.25.33a1.76,1.76,0,0,1-.37.35,2.27,2.27,0,0,1-.45.24,2.39,2.39,0,0,1-.51.14,3.19,3.19,0,0,1-.54,0,2.2,2.2,0,0,1-.88-.17,2,2,0,0,1-.71-.51,2.37,2.37,0,0,1-.47-.82,3.61,3.61,0,0,1,0-2.15,2.37,2.37,0,0,1,.46-.83,2.09,2.09,0,0,1,.75-.54,2.5,2.5,0,0,1,1-.2,2.4,2.4,0,0,1,.94.17,2.26,2.26,0,0,1,.72.49Z"/><path class="cls-5" d="M119.19,34a1.22,1.22,0,0,1-.92-.33,1.34,1.34,0,0,1-.32-1V29.6h-.61a.2.2,0,0,1-.13,0,.18.18,0,0,1-.06-.15V29l.83-.11.21-1.56a.22.22,0,0,1,.07-.12.2.2,0,0,1,.14,0h.45V29h1.47v.64h-1.47v3a.64.64,0,0,0,.16.47.54.54,0,0,0,.4.16.72.72,0,0,0,.24,0l.18-.08.13-.08a.17.17,0,0,1,.09,0,.15.15,0,0,1,.13.08l.26.43a1.66,1.66,0,0,1-.55.34A1.88,1.88,0,0,1,119.19,34Z"/><path class="cls-5" d="M125.17,29.58a2.6,2.6,0,0,1,.72-.59,1.9,1.9,0,0,1,.93-.22,1.85,1.85,0,0,1,.8.17,1.67,1.67,0,0,1,.61.49,2.3,2.3,0,0,1,.38.78,3.74,3.74,0,0,1,.13,1,3.92,3.92,0,0,1-.15,1.12,2.55,2.55,0,0,1-.43.86,2,2,0,0,1-.69.55,2,2,0,0,1-.91.2,1.74,1.74,0,0,1-.84-.19,1.84,1.84,0,0,1-.6-.53l0,.46a.21.21,0,0,1-.23.19h-.57V26.55h.9Zm0,3.11a1.43,1.43,0,0,0,.54.47,1.52,1.52,0,0,0,.64.13,1.29,1.29,0,0,0,1.1-.5,2.49,2.49,0,0,0,.38-1.5,2.24,2.24,0,0,0-.34-1.37,1.15,1.15,0,0,0-1-.44,1.41,1.41,0,0,0-.76.2,2.24,2.24,0,0,0-.6.57Z"/><path class="cls-5" d="M134.43,28.85l-2.83,6.56a.45.45,0,0,1-.11.16.31.31,0,0,1-.21.06h-.66l.92-2-2.09-4.77h.77a.27.27,0,0,1,.18.06.3.3,0,0,1,.09.13l1.35,3.19a3.61,3.61,0,0,1,.14.44q.07-.24.15-.45L133.46,29a.28.28,0,0,1,.1-.13.27.27,0,0,1,.16-.05Z"/><path class="cls-5" d="M145.26,28.85l-1.64,5.07h-.7q-.13,0-.18-.17l-1.12-3.44a1.87,1.87,0,0,1-.06-.23l0-.23-.05.23a2.15,2.15,0,0,1-.06.24l-1.14,3.43a.2.2,0,0,1-.2.17h-.67l-1.64-5.07h.7a.28.28,0,0,1,.18.06.27.27,0,0,1,.1.13l1,3.26q.08.36.14.68l.09-.33.1-.34L141.08,29a.27.27,0,0,1,.09-.12.24.24,0,0,1,.15,0h.39a.26.26,0,0,1,.17,0A.26.26,0,0,1,142,29l1,3.28.1.34.08.33c0-.11,0-.22.06-.33l.08-.35,1-3.26a.26.26,0,0,1,.1-.13.27.27,0,0,1,.17-.05Z"/><path class="cls-5" d="M150.44,33.21a1.71,1.71,0,0,1-.4.35,2.51,2.51,0,0,1-.49.24,3.17,3.17,0,0,1-.54.14,3.35,3.35,0,0,1-.55,0,2.58,2.58,0,0,1-1-.18,2.12,2.12,0,0,1-.76-.52,2.38,2.38,0,0,1-.5-.85,3.44,3.44,0,0,1-.18-1.16,3,3,0,0,1,.16-1,2.34,2.34,0,0,1,.47-.8,2.16,2.16,0,0,1,.75-.53,2.45,2.45,0,0,1,1-.19,2.28,2.28,0,0,1,.84.15,1.92,1.92,0,0,1,.67.44,2,2,0,0,1,.44.71,2.7,2.7,0,0,1,.16,1,.58.58,0,0,1,0,.28.19.19,0,0,1-.17.07h-3.39a3,3,0,0,0,.13.83,1.68,1.68,0,0,0,.33.59,1.32,1.32,0,0,0,.5.35,1.7,1.7,0,0,0,.65.12,1.9,1.9,0,0,0,.58-.08,2.81,2.81,0,0,0,.42-.17l.29-.17a.39.39,0,0,1,.2-.08.2.2,0,0,1,.17.08Zm-.72-2.37a1.74,1.74,0,0,0-.09-.57,1.27,1.27,0,0,0-.25-.45,1.14,1.14,0,0,0-.41-.29,1.54,1.54,0,0,0-1.56.27,1.74,1.74,0,0,0-.46,1Z"/><path class="cls-5" d="M152.85,26.55v7.37H152V26.55Z"/><path class="cls-5" d="M155.47,26.55v7.37h-.89V26.55Z"/><path class="cls-5" d="M166.3,33.92h-.87a.66.66,0,0,1-.23,0,.56.56,0,0,1-.19-.15l-.73-.73a3.64,3.64,0,0,1-1.08.72,3.34,3.34,0,0,1-1.35.27,2.31,2.31,0,0,1-.78-.14,2.19,2.19,0,0,1-.69-.39,2,2,0,0,1-.49-.63,2,2,0,0,1-.07-1.5,2.13,2.13,0,0,1,.33-.58,2.57,2.57,0,0,1,.5-.47,3.28,3.28,0,0,1,.63-.36,3.13,3.13,0,0,1-.45-.75,2,2,0,0,1-.15-.75,1.77,1.77,0,0,1,.13-.68,1.61,1.61,0,0,1,.38-.56,1.82,1.82,0,0,1,.61-.37,2.22,2.22,0,0,1,.8-.14,2,2,0,0,1,.72.13,1.85,1.85,0,0,1,.56.34,1.6,1.6,0,0,1,.37.49,1.52,1.52,0,0,1,.16.58l-.56.11c-.11,0-.19,0-.24-.15a1.22,1.22,0,0,0-.11-.27,1,1,0,0,0-.2-.25,1,1,0,0,0-.3-.19,1,1,0,0,0-.4-.07,1.24,1.24,0,0,0-.45.08,1,1,0,0,0-.34.22,1,1,0,0,0-.22.33,1.15,1.15,0,0,0-.07.42,1.37,1.37,0,0,0,0,.33,1.43,1.43,0,0,0,.13.33,2.22,2.22,0,0,0,.22.33,4.28,4.28,0,0,0,.33.36l2.06,2.1a3.77,3.77,0,0,0,.31-.71,3.61,3.61,0,0,0,.15-.73.25.25,0,0,1,.06-.15.18.18,0,0,1,.14-.06h.55a3.83,3.83,0,0,1-.18,1.13,4,4,0,0,1-.5,1Zm-4.62-3.53a2.12,2.12,0,0,0-.8.68,1.53,1.53,0,0,0-.27.87,1.27,1.27,0,0,0,.44,1,1.35,1.35,0,0,0,.44.26,1.55,1.55,0,0,0,.51.09,2.39,2.39,0,0,0,1-.21,2.56,2.56,0,0,0,.78-.55Z"/><path class="cls-5" d="M171.07,26.55v7.37h-.89V26.55Z"/><path class="cls-5" d="M173.9,27.26a.57.57,0,0,1-.05.24.71.71,0,0,1-.14.2.64.64,0,0,1-.21.14.63.63,0,0,1-.25,0,.59.59,0,0,1-.24,0,.62.62,0,0,1-.2-.14.68.68,0,0,1-.13-.2.58.58,0,0,1-.05-.24.62.62,0,0,1,.05-.25.65.65,0,0,1,.13-.21.62.62,0,0,1,.2-.14.59.59,0,0,1,.24,0,.63.63,0,0,1,.25,0,.64.64,0,0,1,.21.14.67.67,0,0,1,.14.21A.6.6,0,0,1,173.9,27.26Zm-.19,1.59v5.07h-.89V28.85Z"/><path class="cls-5" d="M179.7,29.05v.33c0,.11-.07.18-.21.21l-.58.08a1.65,1.65,0,0,1,0,1.4,1.55,1.55,0,0,1-.39.52,1.75,1.75,0,0,1-.6.33,2.44,2.44,0,0,1-.76.12,2.52,2.52,0,0,1-.67-.09.91.91,0,0,0-.24.21.37.37,0,0,0-.08.23.3.3,0,0,0,.15.27,1.07,1.07,0,0,0,.39.13,4.28,4.28,0,0,0,.55,0l.63,0a6,6,0,0,1,.63.08,1.89,1.89,0,0,1,.55.18,1,1,0,0,1,.39.34,1,1,0,0,1,.15.57,1.32,1.32,0,0,1-.16.63,1.72,1.72,0,0,1-.47.54,2.43,2.43,0,0,1-.75.38,3.25,3.25,0,0,1-1,.14,3.81,3.81,0,0,1-1-.11,2.29,2.29,0,0,1-.69-.29,1.28,1.28,0,0,1-.41-.43,1,1,0,0,1-.14-.51.91.91,0,0,1,.23-.63,1.63,1.63,0,0,1,.65-.42.92.92,0,0,1-.36-.27.71.71,0,0,1-.13-.45.7.7,0,0,1,0-.23,1,1,0,0,1,.12-.24,1.28,1.28,0,0,1,.2-.22,1.35,1.35,0,0,1,.28-.18,1.56,1.56,0,0,1-.59-.56,1.53,1.53,0,0,1-.21-.81,1.56,1.56,0,0,1,.14-.67,1.49,1.49,0,0,1,.4-.52,1.81,1.81,0,0,1,.61-.33,2.47,2.47,0,0,1,.77-.12,2.51,2.51,0,0,1,.61.07,2,2,0,0,1,.52.21Zm-.9,5.14a.43.43,0,0,0-.1-.3.71.71,0,0,0-.28-.18,1.85,1.85,0,0,0-.41-.09l-.5,0-.53,0-.52,0a1.38,1.38,0,0,0-.46.33.67.67,0,0,0-.18.46.61.61,0,0,0,.09.32.76.76,0,0,0,.27.25,1.59,1.59,0,0,0,.45.17,3.27,3.27,0,0,0,1.29,0,1.61,1.61,0,0,0,.48-.18.91.91,0,0,0,.3-.29A.67.67,0,0,0,178.79,34.19Zm-1.6-2.75a1.38,1.38,0,0,0,.47-.07,1,1,0,0,0,.35-.21.87.87,0,0,0,.21-.32,1.17,1.17,0,0,0,.07-.41,1,1,0,0,0-.28-.74,1.36,1.36,0,0,0-1.64,0,1,1,0,0,0-.28.74,1.13,1.13,0,0,0,.07.41.9.9,0,0,0,.21.32,1,1,0,0,0,.35.21A1.38,1.38,0,0,0,177.19,31.44Z"/><path class="cls-5" d="M181.81,29.53a2.69,2.69,0,0,1,.72-.55,2,2,0,0,1,.91-.21,1.83,1.83,0,0,1,.73.14,1.43,1.43,0,0,1,.53.39,1.76,1.76,0,0,1,.32.61,2.61,2.61,0,0,1,.11.78v3.23h-.89V30.69a1.37,1.37,0,0,0-.26-.89,1,1,0,0,0-.8-.32,1.49,1.49,0,0,0-.74.19,2.43,2.43,0,0,0-.63.51v3.73h-.9V26.55h.9Z"/><path class="cls-5" d="M188.27,34a1.22,1.22,0,0,1-.92-.33,1.33,1.33,0,0,1-.32-1V29.6h-.61a.2.2,0,0,1-.14,0,.18.18,0,0,1-.05-.15V29l.83-.11.21-1.56a.22.22,0,0,1,.07-.12.2.2,0,0,1,.14,0h.45V29h1.46v.64h-1.46v3a.65.65,0,0,0,.15.47.54.54,0,0,0,.4.16.72.72,0,0,0,.24,0l.18-.08.13-.08a.16.16,0,0,1,.09,0,.15.15,0,0,1,.13.08l.26.43a1.66,1.66,0,0,1-.56.34A1.88,1.88,0,0,1,188.27,34Z"/><path class="cls-5" d="M191.55,29.53a2.7,2.7,0,0,1,.72-.55,1.94,1.94,0,0,1,.91-.21,1.83,1.83,0,0,1,.73.14,1.42,1.42,0,0,1,.53.39,1.74,1.74,0,0,1,.32.61,2.64,2.64,0,0,1,.11.78v3.23H194V30.69a1.37,1.37,0,0,0-.26-.89,1,1,0,0,0-.8-.32,1.49,1.49,0,0,0-.74.19,2.43,2.43,0,0,0-.63.51v3.73h-.89V26.55h.89Z"/><path class="cls-5" d="M198.7,28.77a2.57,2.57,0,0,1,1,.19,2.14,2.14,0,0,1,.76.52,2.3,2.3,0,0,1,.48.82,3.55,3.55,0,0,1,0,2.16,2.31,2.31,0,0,1-.48.82,2.12,2.12,0,0,1-.76.52,2.63,2.63,0,0,1-1,.18,2.66,2.66,0,0,1-1-.18,2.12,2.12,0,0,1-.76-.52,2.31,2.31,0,0,1-.48-.82,3.55,3.55,0,0,1,0-2.16,2.3,2.3,0,0,1,.48-.82,2.14,2.14,0,0,1,.76-.52A2.61,2.61,0,0,1,198.7,28.77Zm0,4.52a1.3,1.3,0,0,0,1.12-.5,2.86,2.86,0,0,0,0-2.81,1.3,1.3,0,0,0-1.12-.5,1.57,1.57,0,0,0-.66.13,1.24,1.24,0,0,0-.47.38,1.66,1.66,0,0,0-.28.6,3.24,3.24,0,0,0-.09.81,2.32,2.32,0,0,0,.37,1.4A1.32,1.32,0,0,0,198.7,33.29Z"/><path class="cls-5" d="M206.72,28.85v5.07h-.53a.23.23,0,0,1-.24-.19l-.07-.54a2.8,2.8,0,0,1-.74.59,1.94,1.94,0,0,1-.94.22,1.83,1.83,0,0,1-.73-.14,1.46,1.46,0,0,1-.53-.39,1.64,1.64,0,0,1-.32-.6,2.69,2.69,0,0,1-.11-.79V28.85h.89v3.23a1.35,1.35,0,0,0,.26.89,1,1,0,0,0,.8.32,1.51,1.51,0,0,0,.74-.19,2.35,2.35,0,0,0,.63-.52V28.85Z"/><path class="cls-5" d="M211.36,29.69a.2.2,0,0,1-.19.11.35.35,0,0,1-.17-.05l-.23-.12a2.19,2.19,0,0,0-.33-.12,1.58,1.58,0,0,0-.45-.06,1.34,1.34,0,0,0-.41.06,1,1,0,0,0-.31.16.71.71,0,0,0-.19.23.63.63,0,0,0-.07.29.48.48,0,0,0,.11.33,1,1,0,0,0,.3.22,2.67,2.67,0,0,0,.42.17l.48.15.48.18a1.81,1.81,0,0,1,.42.25,1.14,1.14,0,0,1,.3.37,1.12,1.12,0,0,1,.11.52,1.66,1.66,0,0,1-.12.65,1.43,1.43,0,0,1-.37.51,1.81,1.81,0,0,1-.6.34,2.47,2.47,0,0,1-.82.13,2.55,2.55,0,0,1-1-.17,2.44,2.44,0,0,1-.73-.44l.21-.34a.3.3,0,0,1,.09-.1.27.27,0,0,1,.14,0,.33.33,0,0,1,.19.07l.24.16a1.84,1.84,0,0,0,.35.16,1.62,1.62,0,0,0,.51.07,1.4,1.4,0,0,0,.46-.07.94.94,0,0,0,.32-.18.72.72,0,0,0,.19-.26.84.84,0,0,0,.06-.32.53.53,0,0,0-.11-.35.94.94,0,0,0-.3-.23,2.38,2.38,0,0,0-.42-.17l-.49-.15-.48-.18a1.7,1.7,0,0,1-.42-.26,1.17,1.17,0,0,1-.3-.38,1.25,1.25,0,0,1-.11-.55,1.34,1.34,0,0,1,.12-.56,1.38,1.38,0,0,1,.35-.47,1.72,1.72,0,0,1,.56-.32,2.26,2.26,0,0,1,.76-.12,2.41,2.41,0,0,1,.9.16,2.13,2.13,0,0,1,.69.43Z"/><path class="cls-5" d="M217.17,33.21a1.72,1.72,0,0,1-.4.35,2.51,2.51,0,0,1-.49.24,3.17,3.17,0,0,1-.54.14,3.35,3.35,0,0,1-.55,0,2.58,2.58,0,0,1-1-.18,2.12,2.12,0,0,1-.76-.52,2.39,2.39,0,0,1-.5-.85,3.44,3.44,0,0,1-.18-1.16,3,3,0,0,1,.16-1,2.35,2.35,0,0,1,.47-.8,2.17,2.17,0,0,1,.75-.53,2.45,2.45,0,0,1,1-.19,2.28,2.28,0,0,1,.84.15,1.92,1.92,0,0,1,.67.44,2,2,0,0,1,.44.71,2.71,2.71,0,0,1,.16,1,.57.57,0,0,1,0,.28.18.18,0,0,1-.17.07h-3.38a3,3,0,0,0,.13.83,1.68,1.68,0,0,0,.33.59,1.32,1.32,0,0,0,.5.35,1.7,1.7,0,0,0,.65.12,1.91,1.91,0,0,0,.58-.08,2.82,2.82,0,0,0,.42-.17l.29-.17a.38.38,0,0,1,.2-.08.2.2,0,0,1,.17.08Zm-.72-2.37a1.77,1.77,0,0,0-.09-.57,1.28,1.28,0,0,0-.25-.45,1.14,1.14,0,0,0-.41-.29,1.54,1.54,0,0,0-1.56.27,1.75,1.75,0,0,0-.46,1Z"/></g></g></svg>