<svg xmlns="http://www.w3.org/2000/svg" viewBox="0 0 202.71 43.64"><defs><style>.cls-1{fill:#9ca8bf;}.cls-2,.cls-3{fill:#fff;}.cls-3{stroke:#fff;stroke-miterlimit:10;stroke-width:0.31px;}</style></defs><title>compass_logo_header</title><g id="Layer_2" data-name="Layer 2"><g id="header"><path class="cls-1" d="M52.07,28.27h.62v7.82h4.93v.58H52.07Z"/><path class="cls-1" d="M59.7,28.27h.62v8.4H59.7Z"/><path class="cls-1" d="M62.48,35.45l.41-.47a4.08,4.08,0,0,0,3,1.25c1.26,0,2.12-.71,2.12-1.67v0c0-.89-.47-1.4-2.37-1.79s-2.83-1.09-2.83-2.36v0a2.43,2.43,0,0,1,2.7-2.21,4.18,4.18,0,0,1,2.88,1l-.4.49a3.61,3.61,0,0,0-2.51-.95c-1.24,0-2.05.71-2.05,1.58v0c0,.89.46,1.43,2.45,1.83s2.76,1.09,2.76,2.31v0c0,1.36-1.16,2.29-2.78,2.29A4.78,4.78,0,0,1,62.48,35.45Z"/><path class="cls-1" d="M73,28.85H70v-.58h6.48v.58H73.59v7.82H73Z"/><path class="cls-1" d="M82.26,28.27h6v.58H82.88v3.3h4.81v.58H82.88v3.37h5.41v.58h-6Z"/><path class="cls-1" d="M90.42,28.27H91l5.79,7.3v-7.3h.6v8.4h-.47L91,29.21v7.46h-.6Z"/><path class="cls-1" d="M99.65,32.5v0a4.22,4.22,0,0,1,4.2-4.34,4.43,4.43,0,0,1,3.26,1.34l-.44.46a3.85,3.85,0,0,0-2.83-1.24,3.59,3.59,0,0,0-3.54,3.75v0a3.62,3.62,0,0,0,3.55,3.78,3.85,3.85,0,0,0,2.89-1.31l.42.41a4.43,4.43,0,0,1-3.33,1.46A4.17,4.17,0,0,1,99.65,32.5Z"/><path class="cls-1" d="M109,28.27h3.53a3.31,3.31,0,0,1,2.36.83,2.22,2.22,0,0,1,.64,1.56v0c0,1.4-1,2.21-2.46,2.4l2.77,3.59H115l-2.67-3.48h-2.75v3.48H109Zm3.45,4.35c1.4,0,2.45-.71,2.45-1.92v0c0-1.13-.89-1.83-2.41-1.83h-2.87v3.78Z"/><path class="cls-1" d="M120.23,33.35l-3.6-5.07h.78l3.14,4.51,3.15-4.51h.74l-3.6,5.06v3.33h-.62Z"/><path class="cls-1" d="M126.2,28.27h3c1.85,0,3.12.95,3.12,2.57v0c0,1.76-1.52,2.67-3.27,2.67h-2.27v3.13h-.62ZM129.13,33c1.56,0,2.61-.82,2.61-2.06v0c0-1.33-1-2-2.54-2h-2.37V33Z"/><path class="cls-1" d="M136.66,28.85h-2.93v-.58h6.48v.58h-2.93v7.82h-.62Z"/><path class="cls-1" d="M142.32,28.27h.62v8.4h-.62Z"/><path class="cls-1" d="M145.27,32.5v0a4.22,4.22,0,1,1,8.44,0v0a4.22,4.22,0,1,1-8.44,0Zm7.8,0v0a3.63,3.63,0,0,0-3.59-3.78,3.59,3.59,0,0,0-3.56,3.75v0a3.63,3.63,0,0,0,3.59,3.78A3.59,3.59,0,0,0,153.07,32.5Z"/><path class="cls-1" d="M156,28.27h.59l5.79,7.3v-7.3h.6v8.4h-.47l-5.91-7.46v7.46H156Z"/><path class="cls-1" d="M171.61,28.85h-2.93v-.58h6.48v.58h-2.93v7.82h-.62Z"/><path class="cls-1" d="M176.15,32.5v0a4.22,4.22,0,1,1,8.44,0v0a4.22,4.22,0,1,1-8.44,0Zm7.8,0v0a3.63,3.63,0,0,0-3.59-3.78,3.59,3.59,0,0,0-3.56,3.75v0a3.63,3.63,0,0,0,3.59,3.78A3.59,3.59,0,0,0,183.94,32.5Z"/><path class="cls-1" d="M186.47,32.5v0a4.22,4.22,0,1,1,8.44,0v0a4.22,4.22,0,1,1-8.44,0Zm7.8,0v0a3.63,3.63,0,0,0-3.59-3.78,3.59,3.59,0,0,0-3.56,3.75v0a3.63,3.63,0,0,0,3.59,3.78A3.59,3.59,0,0,0,194.26,32.5Z"/><path class="cls-1" d="M197.16,28.27h.62v7.82h4.93v.58h-5.55Z"/><path class="cls-2" d="M60.38,19.26l.9.9a6.1,6.1,0,0,1-4.61,2,5.77,5.77,0,0,1-5.85-6h0a5.83,5.83,0,0,1,5.85-6,6.15,6.15,0,0,1,4.5,1.8l-.9,1a5,5,0,0,0-3.71-1.69,4.56,4.56,0,0,0-4.5,4.72h0a4.59,4.59,0,0,0,4.5,4.84A5,5,0,0,0,60.38,19.26Zm14.51-3.15h0a5.9,5.9,0,1,1-11.81.11h0a5.86,5.86,0,0,1,6-6A5.67,5.67,0,0,1,74.88,16.11Zm-1.35,0a4.68,4.68,0,0,0-4.61-4.84A4.49,4.49,0,0,0,64.43,16h0A4.68,4.68,0,0,0,69,20.84c2.7.11,4.5-2,4.5-4.72Zm10.23.56-4.27-6.3H78.15V22H79.5V12.63l4.27,6.18h.11l4.27-6.18v9.45H89.5V10.38H88.15Zm18.1-2.59h0c0,2.59-2.14,3.82-4.61,3.82H94.45v4H93.1V10.38h4.39C100.07,10.38,101.87,11.73,101.87,14.09Zm-1.35,0c0-1.69-1.24-2.47-3.15-2.47H94.45v5.06h2.81c2,0,3.26-1,3.26-2.59Zm8.55-3.82L114.35,22h-1.46l-1.35-3h-6.18L104,22h-1.35l5.29-11.69Zm2,7.42-2.59-6-2.7,6Zm10.23-2.14c-2.59-.56-3.15-1.12-3.15-2.25h0c0-1,1-1.91,2.47-1.91A5,5,0,0,1,124,12.63l.79-1a6.14,6.14,0,0,0-4-1.46c-2.25,0-3.82,1.35-3.82,3.15h0c0,1.91,1.24,2.81,3.94,3.37,2.47.56,3,1.12,3,2.25h0c0,1.12-1,2-2.59,2a5.27,5.27,0,0,1-3.94-1.69l-.79,1a5.85,5.85,0,0,0,4.5,1.8c2.25,0,3.94-1.24,3.94-3.26h0C125,17,123.91,16.11,121.33,15.55Zm11,0c-2.59-.56-3.15-1.12-3.15-2.25h0c0-1,1-1.91,2.47-1.91A5,5,0,0,1,135,12.63l.67-1a6.14,6.14,0,0,0-4-1.46c-2.25,0-3.82,1.35-3.82,3.15h0c0,1.91,1.24,2.81,3.94,3.37,2.47.56,3,1.12,3,2.25h0c0,1.12-1,2-2.59,2a5.27,5.27,0,0,1-3.94-1.69l-.79,1a6.83,6.83,0,0,0,4.72,1.91c2.25,0,3.94-1.24,3.94-3.26h0C136.17,17,134.93,16.11,132.35,15.55Z"/><path class="cls-3" d="M21.82,43.48A21.66,21.66,0,1,1,43.48,21.82,21.69,21.69,0,0,1,21.82,43.48Zm0-42.6A20.93,20.93,0,1,0,42.75,21.82,21,21,0,0,0,21.82.89Z"/><path class="cls-2" d="M25.33,35.52l-4.48-11L8.61,22.6,29.84,12.3ZM11,22.23l10.32,1.58L25.08,33,28.84,13.6Z"/><path class="cls-2" d="M25.18,33a1.54,1.54,0,1,0,.94.32A1.53,1.53,0,0,0,25.18,33Z"/><path class="cls-2" d="M29.69,11a1.54,1.54,0,1,0,.94.32A1.53,1.53,0,0,0,29.69,11Z"/><path class="cls-2" d="M9.43,20.85a1.54,1.54,0,1,0,.94.32A1.53,1.53,0,0,0,9.43,20.85Z"/></g></g></svg>