<svg xmlns="http://www.w3.org/2000/svg" viewBox="0 0 24 24"><defs><style>.cls-1{opacity:0.84;}.cls-2{fill:#9ca8bf;}</style></defs><title>help</title><g id="Layer_2" data-name="Layer 2"><g id="Layer_21" data-name="Layer 21"><g class="cls-1"><path class="cls-2" d="M12,0a11.68,11.68,0,0,1,4.66.94,12.09,12.09,0,0,1,6.4,6.4A11.68,11.68,0,0,1,24,12a11.68,11.68,0,0,1-.94,4.66,12.09,12.09,0,0,1-6.4,6.4A11.68,11.68,0,0,1,12,24a11.68,11.68,0,0,1-4.66-.94,12.09,12.09,0,0,1-6.4-6.4A11.68,11.68,0,0,1,0,12,11.68,11.68,0,0,1,.94,7.34,12.09,12.09,0,0,1,7.34.94,11.68,11.68,0,0,1,12,0Zm0,22.59a10.15,10.15,0,0,0,4.13-.84,10.76,10.76,0,0,0,5.63-5.62A10.15,10.15,0,0,0,22.59,12a10.15,10.15,0,0,0-.84-4.12,10.76,10.76,0,0,0-5.62-5.62A10.15,10.15,0,0,0,12,1.41a10.15,10.15,0,0,0-4.12.84A10.76,10.76,0,0,0,2.25,7.88,10.15,10.15,0,0,0,1.41,12a10.15,10.15,0,0,0,.84,4.13,10.76,10.76,0,0,0,5.63,5.63A10.15,10.15,0,0,0,12,22.59ZM15,6a2.86,2.86,0,0,0-.56-.59,3.27,3.27,0,0,0-.7-.42A4.54,4.54,0,0,0,13,4.69a3.57,3.57,0,0,0-.82-.09,4.23,4.23,0,0,0-1.95.4A3.93,3.93,0,0,0,9,6a3.35,3.35,0,0,0-.66,1.2,6.11,6.11,0,0,0-.23,1.1H9.52a1.14,1.14,0,0,0,.09-.42,1.86,1.86,0,0,1,.3-.77,2.43,2.43,0,0,1,.8-.73A2.84,2.84,0,0,1,12.19,6a2.67,2.67,0,0,1,.52,0,1.89,1.89,0,0,1,.47.16,2.75,2.75,0,0,1,.42.26,1.29,1.29,0,0,1,.33.38,1.61,1.61,0,0,1,.3.42,2.13,2.13,0,0,1,.16.42q0,.19.07.33a.38.38,0,0,1,0,.23,3.83,3.83,0,0,1-.23.68,2.59,2.59,0,0,1-.35.56,4.25,4.25,0,0,1-.45.47l-.47.45-.61.59a3.72,3.72,0,0,0-.59.7,3.79,3.79,0,0,0-.42.91,3.86,3.86,0,0,0-.16,1.17h1.41a2.73,2.73,0,0,1,.09-.75,1.86,1.86,0,0,1,.28-.59,4.22,4.22,0,0,1,.42-.49l.52-.52.59-.52a5.2,5.2,0,0,0,.56-.61,4,4,0,0,0,.47-.77,5.8,5.8,0,0,0,.35-1,2.59,2.59,0,0,0,0-.61,3.65,3.65,0,0,0-.12-.68,3.3,3.3,0,0,0-.28-.7A3.72,3.72,0,0,0,15,6Zm-1.41,11.3a1.45,1.45,0,0,0-.12-.56,1.35,1.35,0,0,0-.77-.77,1.46,1.46,0,0,0-.56-.12,1.41,1.41,0,0,0-.59.12,1.51,1.51,0,0,0-.45.3,1.43,1.43,0,0,0-.3.47,1.41,1.41,0,0,0,0,1.13,1.43,1.43,0,0,0,.3.47,1.49,1.49,0,0,0,.45.3,1.4,1.4,0,0,0,.59.12,1.45,1.45,0,0,0,.56-.12,1.35,1.35,0,0,0,.77-.77A1.45,1.45,0,0,0,13.64,17.25Z"/></g></g></g></svg>