<svg xmlns="http://www.w3.org/2000/svg" viewBox="0 0 29.31 29.31"><defs><style>.cls-1{fill:#cbcaca;}</style></defs><title>upload_delete_btn</title><g id="Layer_2" data-name="Layer 2"><g id="Layer_21" data-name="Layer 21"><path class="cls-1" d="M14.66,0A14.66,14.66,0,1,0,29.31,14.66,14.67,14.67,0,0,0,14.66,0Zm0,28.31A13.66,13.66,0,1,1,28.31,14.66,13.67,13.67,0,0,1,14.66,28.31Z"/><path class="cls-1" d="M21.57,8.58,20.95,8a.25.25,0,0,0-.35,0l-5.71,5.71L9.17,8a.25.25,0,0,0-.35,0l-.62.62a.25.25,0,0,0,0,.35l5.71,5.71L8.2,20.36a.25.25,0,0,0,0,.35l.62.62a.25.25,0,0,0,.35,0l5.71-5.71,5.71,5.71a.25.25,0,0,0,.35,0l.62-.62a.25.25,0,0,0,0-.35l-5.71-5.71,5.71-5.71A.25.25,0,0,0,21.57,8.58Z"/></g></g></svg>